/* XPM */
static char *_054_9a206f6f1d3042fe8220269be53ba0bee38281deaf2180082e5c18c4ee5683a3[] = {
/* columns rows colors chars-per-pixel */
"64 64 245 2 ",
"   c #51543D",
".  c #645B39",
"X  c #7A653C",
"o  c #3E5D57",
"O  c #3D645B",
"+  c #396A68",
"@  c #2A727C",
"#  c #34757B",
"$  c #327079",
"%  c #157279",
"&  c #555B46",
"*  c #4A5A4A",
"=  c #5C634E",
"-  c #44655C",
";  c #456558",
":  c #5B6552",
">  c #5C6C5B",
",  c #576756",
"<  c #5B715E",
"1  c #6C6A4D",
"2  c #65644A",
"3  c #736D4D",
"4  c #7B6D4A",
"5  c #786743",
"6  c #7A724E",
"7  c #666B54",
"8  c #736E53",
"9  c #6C735B",
"0  c #65735D",
"q  c #7C7454",
"w  c #73745C",
"e  c #74795A",
"r  c #7C7B5C",
"t  c #797556",
"y  c #436A65",
"u  c #556E64",
"i  c #4B7469",
"p  c #5C7363",
"a  c #54736B",
"s  c #5B716A",
"d  c #577869",
"f  c #497575",
"g  c #597E73",
"h  c #557973",
"j  c #647463",
"k  c #657C6B",
"l  c #6A7B66",
"z  c #747D63",
"x  c #7C7C63",
"c  c #777C66",
"v  c #657D72",
"b  c #665C40",
"n  c #8A5C2A",
"m  c #8B683A",
"M  c #9C6C3A",
"N  c #956837",
"B  c #9E713E",
"V  c #BC6E2E",
"C  c #A36B37",
"Z  c #BC7537",
"A  c #A8682E",
"S  c #CB7F3E",
"D  c #836C44",
"F  c #866E46",
"G  c #84724C",
"H  c #8B744C",
"J  c #8C7448",
"K  c #96774A",
"L  c #837553",
"P  c #847A55",
"I  c #8B7A53",
"U  c #837C5B",
"Y  c #897A57",
"T  c #927B52",
"R  c #987E56",
"E  c #936E42",
"W  c #A97A49",
"Q  c #B67C45",
"!  c #A57F51",
"~  c #827D61",
"^  c #3E817A",
"/  c #48847B",
"(  c #5B8778",
")  c #5F806F",
"_  c #69826C",
"`  c #7C8264",
"'  c #7C846C",
"]  c #75846C",
"[  c #698876",
"{  c #7D8D7B",
"}  c #778A74",
"|  c #7A9179",
" . c #69907E",
".. c #CB803F",
"X. c #88805C",
"o. c #9C825A",
"O. c #B7814D",
"+. c #AC8354",
"@. c #A8865A",
"#. c #B88755",
"$. c #BC905F",
"%. c #838163",
"&. c #83856B",
"*. c #898869",
"=. c #938B6B",
"-. c #988A66",
";. c #838B73",
":. c #878D74",
">. c #8B9378",
",. c #949274",
"<. c #989679",
"1. c #95906F",
"2. c #A78D64",
"3. c #A9926B",
"4. c #A79A78",
"5. c #B39D76",
"6. c #BB9163",
"7. c #B9A37B",
"8. c #A9A17E",
"9. c #C98B52",
"0. c #CC8140",
"q. c #C0A77B",
"w. c #EEB57E",
"e. c #F3B47A",
"r. c #C59A67",
"t. c #2A7683",
"y. c #367682",
"u. c #1B7B82",
"i. c #407984",
"p. c #3A8486",
"a. c #389096",
"s. c #2F8D95",
"d. c #478A87",
"f. c #4A999A",
"g. c #549A96",
"h. c #558E87",
"j. c #6A8E82",
"k. c #689588",
"l. c #749A8C",
"z. c #7B9D8B",
"x. c #789785",
"c. c #689C94",
"v. c #5BA39D",
"b. c #6AA59C",
"n. c #79A599",
"m. c #7CA18E",
"M. c #4AA4A7",
"N. c #56A7A8",
"B. c #5AB3BA",
"V. c #54ADB0",
"C. c #68ABA4",
"Z. c #78AAA4",
"A. c #6BB1AC",
"S. c #78B4AB",
"D. c #64B5B5",
"F. c #78BCB7",
"G. c #439CA0",
"H. c #7CC2BC",
"J. c #5DBCC0",
"K. c #61BEC1",
"L. c #57D0D7",
"P. c #5BCFD8",
"I. c #7BC7C5",
"U. c #71D1DA",
"Y. c #68CBD1",
"T. c #879A86",
"R. c #949C83",
"E. c #989C84",
"W. c #809E92",
"Q. c #8BA28C",
"!. c #97A48B",
"~. c #83A493",
"^. c #88AA98",
"/. c #96A994",
"(. c #99B29C",
"). c #8AB19E",
"_. c #A5A384",
"`. c #A7A587",
"'. c #A7AD96",
"]. c #ABB49D",
"[. c #A6B49C",
"{. c #BAB89A",
"}. c #B9AD8A",
"|. c #88B5A8",
" X c #98B7A5",
".X c #85B5AC",
"XX c #A8BAA4",
"oX c #B6BCA4",
"OX c #A89F82",
"+X c #D3B68E",
"@X c #C4BA98",
"#X c #C8B189",
"$X c #F0B780",
"%X c #93C4B6",
"&X c #A9C1AD",
"*X c #B7C2A9",
"=X c #A8C6B8",
"-X c #B7CAB4",
";X c #B8D1BE",
":X c #D8C299",
">X c #FDC28C",
",X c #FCCC9A",
"<X c #ECCA9D",
"1X c #C7C7AA",
"2X c #D7CAA7",
"3X c #C8CCB3",
"4X c #CED3B7",
"5X c #FCDBAA",
"6X c #EAD5AF",
"7X c #FEE7BC",
"8X c #FFF5BF",
"9X c #FFE0AD",
"0X c #82C9C6",
"qX c #98D0C5",
"wX c #B8D9C9",
"eX c #ACD5C7",
"rX c #B8E6D8",
"tX c #BBEEE3",
"yX c #C6DBC6",
"uX c #D3DEC5",
"iX c #CBE3CD",
"pX c #C7E9D9",
"aX c #D6EBD5",
"sX c #D3E2CC",
"dX c #FFECC2",
"fX c #F5EBC9",
"gX c #FFF6C9",
"hX c #FDFDDB",
"jX c #FAF4D3",
"kX c #E6E9CE",
"lX c #DBFBE8",
"zX c #DBFFFB",
"xX c #D6FFF7",
"cX c #C7F7EB",
"vX c #ECFFED",
"bX c #E5FFEC",
"nX c #FCFFE3",
"mX c #F3FFEC",
"MX c #FBFFEA",
"NX c #F1FFE6",
"BX c #E6FFF4",
"VX c #EBFFF2",
"CX c #E4FFFA",
"ZX c #F6FFF1",
"AX c #F8FFF2",
/* pixels */
"!.l =X).4XI 7.L l [.nXhXMX'.& j k.h s ;.w = f @ B.Y.V.M.% f.n.bXBX( p.u.B.B.Y.f.# i = 8 R.- d.c.> & 3XMXjXnX;.c L #X<.*X&X/. .z.",
"] d eXS.iXt 4.P * ZXnXhXnX>.9 > + i =XAXE.> O g.F.i.d.S.I.b.).;XBXc.C.0Xb.h./ H.# + : 1XAX^.+ + j 2 {.nXnXMXyX2 q OXT.=X&X|.) [ ",
"&X%XM.N.C.n.;.e 2 oXMXMX4.2 c : h - XXmXVXj.N.0X[ }.}.t [ |.).lXzXc.^._ e 4X*. .I.V.l.mXMX;.y h 7 w b {.MXMXR.9 7 T.Z.C.N.g.%XXX",
" X).V.B./  .j 7 l & 9 7 b c : - f y l.VXyX|.D.g.U +.<XT %.' ).zXzXm.` X.J 8XN ` C.M.wX4XVXh + f * 7 w 2 j 2   c : k  .f H.M.%XXX",
"4X-XA.i . J . >.v u c c p h A.N.a.V.d.cXiXiXS.) T N gXG 6 U T.cXtXm.6 J H 7XM K  .b.vXiXqXN.M.f.V.S.y j c c u } ' X X 2 / C.wX3X",
"*.] |.[ K #.3.E.XX* : & i F.g.g.A.H.H.S.mXmXb._ J N 6X3 K X.1XyXaX].J N 1.:XN J  .S.vXvXb.I.A.A.d.N..XO , : s =X*.2.$.X l.b.` -.",
"7.4.T.< X 3.<.9 s ; s f d.C.^.`.I 6 ) ^.iXvX|.x.L F *.1 K n q.-.3.2.n ! r 9 I G Q.%XBX&X^._ P L 1Xh 0X@ f u ; l ` 2.3.. ] | 8.7.",
"H P 9 : <.' e = l s y $ N.C.c dXC K r | [.*XVXoXX F Q.>.I @.K D D o.@.D [._ 4 X uXaXwX!.` H K #.9X9 F.f.+ y v j 2 e <.' = 3 ` X.",
"l & 8 z [ =X> { MXaXg b.H.( T $.5XL G U 2X{.6 H #.@.( n.} _.,.' ' ;.*.>.n.d 2.O.K 6 4X{.4 D J 7XB I k.D.C.x.mXMX= _ -Xv z 7 * c ",
"XXkXR.& , - ; _ ZXAXBXj.%X/ T B 2X=.G 4 m T X K E 5.~.i *XR.XX X XXX!./.u (.7.B T 5 X.4 D D #X}.W I k.N.|.ZXmXsXd o ; >   oXlXT.",
"hXnXMX& } * d - j.CXXXbXb.k.P m 5 _.4 X.2.T *.| {.<._.` 3 *.Q.m.m.Q.*.q U E.,.oX| ;.G 2.P r ,.5 m r n.S.vXXXbXd y h : w c mXnXnX",
"hXnXMX7 c , i + Z.n.VXBXcX .*.G Y -.*.=.5.-.-X^.(.,.Y I 4.1 } h d } 3 4.Y P >.(.^.-X-.@.&._.L T G >.x.xXbXvXk.b.+ f : x c MXnXjX",
"MXnX1.b , + p.M.H.S.C.xXBX4X4X5 K 6 Q.0 2X-./.x.z ~ 1 nXnX<.' ;.| ` <.nXnX1 ~ c x./.2.@Xv T.G E I kX4XBXtXC.H.D.G.p.- 0 & {.nXMX",
"XXE.b c ) H.H.C. .( n.l.iX{.,.X.2.}.[._ q %.{ p ,.r 2 ].XX0 > j j > j [.].2 U >.0 } ~ r _ [.7.@.Y _.].4Xl.k.( k.A.A.%X- x 2 '.].",
"& w x > %Xf. .e X.J t *.7X=.3 X.1.1.%.U &.].> { ' z , u ) + - =X=X- - h u , c ;.| > '.%.r *.-.,.X.1 ].3X%.X.T H r j.C.Z.7 ~ 2 & ",
"j : : - B.h.oX9X+.B F 6 5 X.X.&.oX].=.L MXmXl u l -X; h m.m. .wXwXj.m.~.d - -Xj p k AXMXq ,.].oX' %.U 4 H m B $.dX`.N.f.; : > s ",
"j.o s f G.C.L W dX#X5 L ! 2.,.oXz.x.c 7 1XT.a - d BX|.m.`.*.>.wXiX| =.`.~.|.BXd + a T.1X1 ] x.m.&X1.o.B I 4 <X5XE G H.s.f d O Z.",
"f f - f V.C.U W G 4.`.L L #X-.XXx.d c ;., > l.l.~.wXrX} X.7.e -X-Xt 7.X.} rXwX~.l.x.p : ;.l d l.].1.2.4 -.4.4.G K 3 H.f.+ ; y h.",
"s XX^.j.f.H.j r F 4 r &.!.oX~ ,.c l } j - ( T.<.z /.aXR.3 =.3 8.8.3 *.3 R.aX!.] <.T.g - j ' l ` =.*.Q.Q.<.4 F 5 ` ( H.g. .(. Xy ",
"`.AXAXCXrXZ.^.' L D ~ ,.> l x L 7 :.> pX.Xn.c {.e x oXR.t Y 4.6X6X4.X.r <.].` r {.w n..XpXp :.1 q r _ _ *.H G r | ^.S.cXZXAXAXc ",
"r {.mX;XaXvX&X].1Xm -.}.2XL %.MXoX, O .XxXXXx t :.9 oXkXfXOX+XjXgX+X5.fXkXoX0 :.r r &XxX.X- , oXnX&.P :X3.@.4 2X!.iXbXyXsXmXE.w ",
"& , l.%XlXNXvX;X}.R T -.2.%.].AXT.< g n.&XvX{.3 U E.jXhX:X! ! ! +.@.K :XhXfX_.x 3 {.NX&Xb.) > T.ZX].%.-.2.H X.3X-XvXmXaX Xh.: & ",
"i + V.A.S.n. XlX4 X &.-X/.} < v a x.>.z r {.4.@X2X-.! ! W 5X7X! 6.gX5XB @.@.o.2X#X<.{.r ` >.l.a v > } /.-X&.5 X.lX|.n.S.B.N.+ h ",
"$ f.0Xg.( [ z.*XJ T { ^.x.s | u y l.!.@Xq 4 {.hXdX! ,Xe.Q e.e.Q Q $Xe.Z w.,X+.dXhX@X3 r {.!.l.- p { p x.^.| I T *Xx._ [ N.0Xy.$ ",
"V.F._ Y K F G X O.W oX(.l >.&.j i ^.z e *.r 2X7X#.9.8X>XA V S S Z ..V A $XdX9.#.7X2Xz :.r z ~.i j ' >.e (.oXB O.X L J T t  .H.M.",
"J.d.4.W N N K D 2.7.>.>.~ ~ c ;XCXwX!.` 0 8.-.+.9.Z O.#.O.E Q N N W M Q Q 9.Z 9.W -._.0 ` !.wXCXwXz ` ` >.,.o.@.F F N N ! `./ Y.",
"N.h.1X5XjX2X&.{  .(.<.Y 1 2 , - .XpXaXoX*XjX@.,X8XO.A O.~ : s u s s 0 ~ ! C Q gX,X+.jXoXoXsXpX|.; : 2 1 X.<.m.< T.~ fXgX5X{./ B.",
"D.b.t J G q 8 T.S.O X.I nX'.u h ~.[ R.E.kXhX+.$X>XO.+.X s f $ t.@ $ f s 5 O.#.>X$X+.hXkXR.Q.} ~.g , [.hXX.X.) k./.8 4 D H 9 F.M.",
"s.H.l X.4 K K T ' *X6 8.nX[.g ~._.X.3 r fX:XC Z A O.U s y i.@ t.t.t.i.y s ~ Q A Z E :XfXr 3 Y `.n.) '.nX8.q '.:.G K J G ` _ I.% ",
"a.C.).' t o.n #._.R.*.3 <.0 y z.-.7.=.P 5.K 5Xe.V M > f i.t.B.U.Y.V.y.y.f > N S e.5XW 5.U =.7.=.z.y j <.3 X.<.=.@.N K r ] %XC.^ ",
"n.n.).~.z.1X6.K >.XXQ.] ] > y j.| t 6 4.+X+.gXw.S W j $ @ B.Y.P.P.Y.B.t.$ s W S w.gX@.+X4.4 e { j.- > ] ] Q.XX:.o.7.*Xx.^.m.).k.",
"bXwXxXzXcXiXX.F '  Xm.d { l =XwXyX-X_.6XjX+.6.Q V N s t.t.U.P.L.P.P.U.t.y.s n S Q 6.! gX6X_.-XyXwX=Xj { ) m.(.' D 3.yXxXzXxXiXvX",
"CXlXzXxXcXaXo.F '  X~.p ;.j =XwXyX-X`.6XjX! 6.Q V N u y.t.U.P.L.L.P.U.t.y.u N V Z 6.+.jX6X_.-XyXwX=Xk { d ~.(.' D 4.iXcXzXzXlXVX",
"k.k.n.m.x.*X2.K >.XXQ.] } , + j.;.e 8 4.+X@.dX$XS W s t.@ J.P.P.P.P.B.t.y.u W S e.gX@.+X4.3 e ;.j.- > ] ] R.XX*.o.7.].x.n.l.n.( ",
"a.A.^.` 6 K n #.<.R.&.8 E.0 y z.=.7.=.L 5.K 5Xw.V M 7 f y.y.B.U.U.J.t.i.i.: C V e.9XK 5.U =.7.=.z.y j <.8 *.R.U @.N J q ] |.C.y.",
"s.0X9 I F K K J | XXq 4.nX'.g ~._.X.3 U jX+XC Q A Q ~ s y y.@ t.t.t.y.+ s ~ Q A Q B +XfXr 3 Y _.~.g (.nX8.q R.<.F K N J X.[ 0X% ",
"B.c.` D 6 *.e /.).y U I nX'.u h ~.} !.!.kXjX! $X$X9.! 5 s f $ t.y.y.i.s b #.O.>Xw.+.hXkXR.R.} ~.h a [.nXI U g k.XXw -.G J e S.V.",
"N.h.2X7X7X:Xe _ [  X<.Y 1 = , - |.rXaX].oXjX! 5XfXO.A ! U > s s s s 7 ~ O.C Q fX,Xo.gX*XoXaXpX|.- , = 1 U 4.Q.i { w 2X8X7X3X^ J.",
"Y./ 1.m C n T 4 2.q.,.>.~ x c wXBXwX!.` 9 OXR ! 9.Z O.9.Q M W N n Q C #.O.O.Z 9.+.-._.9 x !.wXBX;Xc x U >.<.@.6.D H N N m >.^ Y.",
"M.%X[ X.o.K 6 X O.+.{.(.z >.~ l i m.` r T.~ 2XfX9.9.jX$XA V ..V V S V A $XfX9.#.dX2Xr :.e z ^.i j ;.:.z (.oXN W 5 L B X.` x.I.f.",
"@ p.0Xv. .| m.4XJ K | ^.| d ;.u O l.R.@Xt 8 {.jX7X+.,Xw.Z w.w.Q Q $X$XQ $X,X! dXhX}.3 q @XR.l.O < | k | ^.;.T R 4Xx.[  .A.I.# # ",
"h + V.N.b.S.%XaX4 5 &.-X/.} 0 v a l.T.c x {.4.#X2Xo.o.+.B 9XgX$.6.fX5XC +.@.o.2X{.4.@Xx z T.l.i k < } /.-X} 5 U aX.XZ.b.M.N.+ f ",
"& , m.wXNXvXBXwX1XI I 1.-.U XXAXT.> g ^.=XNX{.8 r !.jXhX:XK +.+.! ! K :XhXjX_.~ 4 {.NX=Xn.g > T.ZX].%.-.-.J U uXwXVXvXvX=Xj., & ",
"q 1XmX;XaXvXXX[.@X5 2.3.2Xq ~ MX*X= ; .XxX&X` q :.0 oXkXfX7.+XjXjX+XOXfXkXoX9 :.q r &XxX.X- : oXMX&.t @X@.@.4 oX!.wXvXyXiXMX'.w ",
"'.MXmXVXqXb.^.` G D U :.< l ` 6 1 :.0 pXS.n.e @Xe ` oX<.w U 4.6X6XOX~ ~ E.].` e 1Xe n..XpXj ;.1 q r v } U G D L ] ^.b.rXZXAXZX} ",
", (.x.( N.H.0 I F 5 ~ >.Q.*XU 1.` _ ' 0 ; g T.R.z /.aXR.3 =.4 _.OX4 =.8 R.aX/.z R.>.) - j ' l ] =.*.!.T.'.4 D D ~ v H.N.g T.^.; ",
"f f y + V.C.X.B H }.4.6 T q.1.].x.d l } : > l.l.~.wXrX} T 7.c -XoX9 OXY } pXwX~.l.x.> : } l d x.].1.-.F Y 4.}.H K 8 0XG.+ y y h.",
"k.+ g + M.C.H $.7X}.5 H W 2.<.].m.x.] 2 1XT.u y d BX|.~.`.*.;.wXpXT.R `.W.|.CXa + i R.*X1 c l.m.oX1.o.m R 5 +X7XW q I.t.f s + Z.",
", 7 7 - D.d.3X5XC B D P J I ` *.oX].,.r MXMXk s j -X- h ~.z.j.rXwXj.z.~.h ; -Xj p k AXMXP 1.].oX&.` X.P H m W O.7X[.f.N.; 2 j u ",
"& 1 8 > I.g.) 9 I T e >.fX1.3 ` 1.,.=.r ~ '.> { } x : u g O y XX=X- y h u , ` ;.{ > ].x x =.1.,.` 1 ].3X&.P J I 9 g C.b.7 r 2 & ",
"3X'.b z i .XH.F.c.h.Z.x.uX{.`.X.o.4.Q.k t &.{ p >.r = ].XX0 7 j j > j [.[.= ` >.p } *.q l /.2.R U ].{.4Xl.n.h.c.F.H.%X; 9 2 oX1X",
"nXnXOX2 > + y.G.D.b.S.zXBX;X1XX H 6 !.l 2X3./.x.c %.1 nXnX<.] { { ] <.nXhX1 X.] x./.-.@X} x.H m Y 4XyXBXcXA.C.D.a.# O j & 3XnXnX",
"jXnXnX7 c , h + C. XbXBXtXj.X.H X.1.=.*.5.2.-X^.(.>.Y L 4.3 ] d d ] 3 4.L I >.(.^.-X@.o.` '.L R H =.l.cXbXbXn.C.+ f : ~ ~ MXnXhX",
"nXnXnX& ] * s y ~.BXoXbXC.k.X.m 4 4.4 I @.L &.{ {.<._.U G *.Q.~.~.Q.*.L X._.,.{.{ ;.G @.H 3 3.5 m q b.A.bXoXVX[ + s : w c MXMXnX",
"R.uX&.& u f ; v ZXZXlX( H.) T B 6X=.G G 4 X.5 I M -.~.h ].E.XX X XXXR.R.) Q.2.M H X X.4 F F #X#XW K k.C.n.ZXmXaXv o y >   '.yX} ",
"z = 9 ] x.XX> ;.AXyXd b.H. .I r.<XG q X.3X:XP I O.@.d c.;.,.:.&.&.;.~ >.k.d #.O.X.U sX*X6 D G 7XW I c.V.b.[ aXMX& v ;Xv c 9 : ] ",
"I q 0 : >.~ w & : g y $ N.C.x dXM K ` x./.*XVXoXX H /.T.H @.T D D o.@.F XX] 4 D uXpXyXQ.' X.K +.7X7 F.f.$ O g : 7 U *.` : 7 r G ",
"7.8.Q.< 5 3.3.z j ; a h d.c.~.R.6 3 [ ~.aXmXn.j.H F *.2 K n #X3.5.5.N K r 9 H P m..XbX-X)._ 6 6 ].a 0X# f u ; _ x 2.2.. } T.4.#X",
"<.| |.) E #.-.`.XX; & & y %Xg.C.I.I.F..XmXmXn._ J N dX3 T X.*XyXpX[.J N -.2XN J j.|.vXVXb.I.I.H.g.C..X- : & u ;X*.3.#.X l.n.T.<.",
"*X=XC.f b D . ;.s p x x j i C.f.p.G.g.xXyXiX.X( I N dXG G X.x.xXtXl.6 J G 7XC T h.c.vXyXeXN.a.a.M.C.; j x x > v x . 5 2 d.A.=X*X",
"&X%XN.H.d.x.x 7 9 * ' 9 & z , - f y x.VXaX|.D.v.t @.<XX.` | ).zXxXm.] X.H 7Xm e A.M.eXuXCXs + f * > 9 & ' z   c = _ l.d.I.N.=X&X",
"/.).N.M.A.l.:.t 2 4XAXmX'.1 ~ : s - XXAXmX( M.I.[ }.}.e  ..X^.lXzXk.).[ e 4X:.m.I.f.j.AXMXT.y a 7 U 1 4XMXmX`.9 9 Q.b.C.N.g. X/.",
"} ) eXS.iXt 5.P * VXMXhXnXE.0 j O f =XAX>., + d.H.^ ^ H.I.b. X;XBXl.C.0XA./ / 0Xy.+ , oXAXW.+ + j 2 oXnXnXnX4X= q 8.Q.-X%X).d  .",
">._ =X).4XY 7.L v /.MXjXMXE.* k ^.i.u l w & i @ V.Y.J.G.% p.l.VXbX( p.% V.D.Y.a.f i.& w ~ - h.Z.> & 1XnXhXhX[ ' X.7.<.*X*X/.| x."
};
