/* XPM */
static char *avwcp_hmx7y[] = {
/* columns rows colors chars-per-pixel */
"64 64 86 1 ",
"  c #3F3F3F",
". c #414141",
"X c #424242",
"o c #444444",
"O c #454545",
"+ c #464646",
"@ c #474747",
"# c #484848",
"$ c #494949",
"% c #4A4A4A",
"& c #4B4B4B",
"* c #4C4C4C",
"= c #4D4D4D",
"- c #4E4E4E",
"; c #4F4F4F",
": c #505050",
"> c #515151",
", c #525252",
"< c #535353",
"1 c #545454",
"2 c #555555",
"3 c #565656",
"4 c #575757",
"5 c #585858",
"6 c #595959",
"7 c #5A5A5A",
"8 c #5B5B5B",
"9 c #5C5C5C",
"0 c #5D5D5D",
"q c #5E5E5E",
"w c #5F5F5F",
"e c #606060",
"r c #616161",
"t c #626262",
"y c #636363",
"u c #646464",
"i c #656565",
"p c #666666",
"a c #676767",
"s c #686868",
"d c #696969",
"f c #6A6A6A",
"g c #6B6B6B",
"h c #6C6C6C",
"j c #6D6D6D",
"k c #6E6E6E",
"l c #6F6F6F",
"z c #707070",
"x c #717171",
"c c #727272",
"v c #737373",
"b c #747474",
"n c #757575",
"m c #767676",
"M c #777777",
"N c #787878",
"B c #797979",
"V c #7A7A7A",
"C c #7B7B7B",
"Z c #7C7C7C",
"A c #7D7D7D",
"S c #7E7E7E",
"D c #7F7F7F",
"F c #808080",
"G c #818181",
"H c #828282",
"J c #838383",
"K c #848484",
"L c #858585",
"P c #868686",
"I c #878787",
"U c #888888",
"Y c #898989",
"T c #8A8A8A",
"R c #8B8B8B",
"E c #8C8C8C",
"W c #8D8D8D",
"Q c #8E8E8E",
"! c #8F8F8F",
"~ c #909090",
"^ c #919191",
"/ c #929292",
"( c #939393",
") c #949494",
"_ c #959595",
"` c #969696",
/* pixels */
"xxxxMPBgwUMMgBMPEGZZZMBhxBBxxagZZUZPZUGBxxBG~GBhgG)UZxxMMPGZBxxB",
"BxxMZZw2wPhxwBMBUPPZGZZGxBBxh2BGBBBMZGPBhahBUBMgh~~GBMBhxBZZZMBh",
"BxaxMw555gw2<525eewgxPBUUZhw2<2whhhxPBhga5<2ewgh~~MZPZZGhZZZPZZP",
"ZBggMeZMgPMZGGGGGZgGPUUUUUPGGGBaGPGMZBxMBhgxhBZE~EUUPUBUUUGZZPBU",
"MPPUBwBBhGMZUGZBxggPZBPxBPGGGMggPBxZZZxBZxggMG~PBGEUUUUUGEUPZZZP",
"xPG~GwBPMPPPGZZPBagGZBPZEBUUPxaaPxhGZZxMPZBx~)~UZBMMBBPGBMMBZMMx",
"gBxxMwZZxMBBPZZZxagPMxMM~BPGEBawGZhPZGZxZZZB~)PZZZMBMxZZxxMMPZBx",
"aBxgg5wxxMhxZZZZxeaGMxBZ~GZxMBa5PUMBMMBhZZPZG))UGPZZGxBBgagxBZZx",
"MPBgBa2wMBZgMBBPBawGxgxBPBMxMMa5PUPBxagZPBBBMU~BZGGMPGZPBhGxBZPZ",
"GZPxhae255aeeaaeee5ZgeeaaaeaaawwBhaaeeeaaaaaehEBGBBaagBZGMUPUGGZ",
"MxBMGBge2<<2255%%5wgww52<%<5wew5eagaw2=<5aawwaEBBha5<5ghBZPG~UPZ",
"xBhxZZBx5wZGGPGGGGGGPGGGB2ZPPPPPGPPPGB<xBU~EEE~GBxgMBGBBMxBMUGZx",
"ZZPxBZMwwGUBMZBPGZMMPGBMa<PUGUPUZUEEGg2GB)EZ~BZZZMGUGGZZMBhhZZxx",
"PBUPUMw2aUEZBZBxGxBxZZZxe2GGZPUUUUGEGaeBZ~MMExZZPZG~UPZPZZPxBZMB",
"UUUGPe5xgPUUZGPMPPPhBZPZa5PPBMBBUGBMxaaxB~MgGUUGGZBUZMZGGBUPZPZZ",
"BUZBe5MBeGBZhGGGZMZBZBPPawPGMBMxZZxxMaeBZ~ZhUG~EPZBPBMPZZUPGZZPM",
"xBBhwhMZeGMGxBMxMgBBPBZUa5PPBZZhMMaaae5MP)BgZgZPGZMMMxMBMPxBPZGZ",
"hBMa5ahMwZgeeeeeeweeaeegw<Bhaghghhghggex~EhagagMBZGMggMBBPZEBPUE",
"PZha5aew5ew<%.<52%%<522=<<wgahPGE~~~U~~~~MMhhaaghZZxhMBMxxB~BPG~",
"ZZZZeZPPPPGPM%BPGGGPPGB2ZGGGGU)~EEUGgZ)EUBBMBghMBZZxahBxxBZ~ZZxM",
"BPZBeGG~EUZZB2GGPG~EUZg5PGZMM~)EGZMgaxPGBMGZZPxZZZPBhGZxaxZUGZMB",
"PZZxwxMUGZMBBeGMMMUGMxewBZZBE)PZZZxeghZBxMGPBUPUGGGPBUUBagZPZPZB",
"ZZZh5gxZZxMZGeGxMZUZxgaaZG~~))UPZPZhGxBZMZPUUPZUPGBGBGGZxhMxZGPM",
"PGPBeZxBZxBZZhGgxZUZxaghU))GZUZMZZPBUPZPZBBMZewewwwwweMBxggxBZZx",
"MZGGeGPZPZZUGhPgaMPGBxE~)EEZBPBMPZZUPZZGPha5wwhxMxZBMhhPZBhhZZPZ",
"xGZB5wMBBGxBhgZggghhxE))PUGZMMMxMBMPxMPGM52wZPZZZZxGxBhEGZMPUGGZ",
"hMBMa5gaee5wwghxEUGEE~MPPGZZPBggBZZGZEBZwwgaZ)UGZPBUUPhEGPZG)EUZ",
"gBBBZeZMGZwGPGUU~~~EZMxBMPZZZxhMBxxMBExwwGBgZ~UUUUUGEPgEZZPG~UUZ",
"MBxxxwwhUBeGGx~~xxMZZMBhxBZZZxghBxxMZ~BwhMBgBZxPMZUZGMgEMMZBPhxx",
"hBxhMMw5MxgZUB~GhZxZPZZPxZZGPZhGZxahZEB5hZGhBGxGGPZBBBeUxBUPZghx",
"UZxghZGw5ggGU)~PMUUUGPBUPUGZZPMUUBggZPMwBBMaaaaaaaaaaawPEBPGBhxa",
"EUBggBPMw2aBZ~MBMZ~UUUUUGEUUGPZGBMhhMh5wZhga5wagaww5555gEMZZZMMg",
"PGBxhBMBxwg~~ExGZBMMBMPGBMMZZMxwwww5w55MZMGxGPUPPPPBwZPP~xZZPGPM",
"MZZxgghZZMMEPBMZZZxhgMZZxxBMGZx5hZBMggBZPZUUEGUZUEUhwBPB~EUGGZPP",
"xxPBBhhBZPZGZZZBZPZUMGUUZZZZhZwwggBBMPUGGZZEUUUUUGUgaMZZU))UPZxM",
"BxZZZMPUZGZZGPZMxMxPBPP~UGZZeweBgwMPZG~UPZZMMBBPZBMaaBMxB~PZMhgM",
"PxBZUZG~EPGUUGPZBPxBZUZZEPMaZBGZhaBZMUEGZZZMBMxZZxgewGZBM))Zhgxx",
"UPZZUZMPGZPUZZZPBUUUZBBMPMwgMxxMgaBGBZEUPBPBBZhBMgae5MBMM))Zxahh",
"ZBBZUZMGZMMxMGBBBPG~Pgaaa52eaaeaw2eaeagaaaaeeaeeeeew=weag~~UBhGh",
"BBGGEBPUUZBBhghggghZMgeew2555aw552w5@5w55ww<@ @<2ww<@%5wg~UPPBUU",
"xxMMGBPGEUZZGMGPGZZZPMgahwZMgGPPPPPZ5ZPPPPGGx%BGGGPGGGPGZ~PPUPPZ",
"xxBZZZZxgMMPZxMBMPZZZxhMx5BZxBZPG~UgwPBPZZMha<GGZMMBBPZBB~ZZMMMx",
"xahZPGBgagxZZMMhhZZZZhaggwMZMxxMMUZa5GMBZZMZe<BZBMBhxBBMB~BPZBxB",
"MggBPZPBhGxZPZZGxZZZPBhZh5BPBxxMZUZewGxZZPZBawGZPZZGxBZB~~MBZBMB",
"BxhMMZZPMPUUGUZUUUGZZPMUGwBGBxaxZUZawGPUGGZxa5xZZPBUPZPG)ExBZPZB",
"ZxgghZZZMZ~UUUUUPEUGZZBPMwZPBMaaBUGa5PGEPPBMa5xGZZPPZBG)~EPPZZBM",
"UZBhhZZPZZMMBBGZMxgggxMxa2aaaewweee5%Maggaaew2ageaaaah~~MGBhghBx",
"ZZBMPUGGZZxBhhgaw55eaBBh5weww2<.<%%@@25waa5w2<<%@.5agM)EhhgMBhGh",
"ZZPZG~UPZPZZPhBBhaahBBZhwZUPGGB=BGGGGGGGPPPPGZZGM%BPUU)EEPBZPMPP",
"EGGZBUGMZGGBUPZPBgGxZZPMwPUZxBg2GMZZBZhMZZZZMhxBa2BG~P~BMBMPZxMB",
")UPBZUZxPZZPUZGGPMUPUGGBwGPPBGe=ZxZPZZGxZZZPBhGZe%hZUG~MMhxZZMMg",
"UZMMZUZMZZMMMMGZZZUP~UPB5eGUUBa5PUUPPBUUUGZGPBUPa2aZPG~GZGxZPZBP",
"GBBGGEBPEUGBBBxGxZUZZBMMgwBZPgaaU~UUPUUGEUUGPZPBaegMMZ)UBUUUGPBU",
"BMxMBPBPGEUZZPMPPPGBBZMaa5ZGBaeaPBMBMPZBMxBBxxMMa5aghB~ZxZEUPUUE",
"BxxZEGZZMZBMPZxMBBGhggaax5waaeewMaweeaaaeaaaaeeew=geaxExaagagxUG",
"Zxax~EZZMMhxZZxMhxZBBBgagg552=2=@ @<5waaw5weaw2..@2wh~)Zg555agBZ",
"PBagZPZPBhGxZPZZGxBZZUBhZxMMw22a5@BMZBUPBBGBGPB<xBZBE)UPBGBhZgMZ",
"ZBxhMMZGGMPEUGPZUPUGZGPMUPUGBxwge2UZZMMBZZZGGEgwGUPP~GxPxZPZZMxB",
"ZZxgghZZZMZEUUUUUPEPPZZZPG~UPBw2ewUGZMMhBxxMBPgeZE~~PPMGZPGZZPBg",
"MPZBxhZZPZZMMBBUZBMMZZMxMMUZMPM5ewGGPZhGBxMZZPgaxZ~)UZxxBMGZZZxh",
"hZZZMPUGGZZBMhxZBMhMMPZBxBGBMBB5e5xZZPMPGB~EZPxBB~~BZZxggxZZZZxg",
"hZZPZZ~UPZUBhGxBZxgghZZZxZUZxBBw5ahBZZMZU)ExaE~E))UxZPZhZxBZZUBa",
"UUGGZMUZMZGPBUPZPBhZxZZPZZUUZMGMwhxZGUZG)~MhxMZMPBUUUPPBUUUGZGPx",
"G~EUGZUBMPZGUUGZGPMUUUGZBBUGPMZBeU)))`)))GxagxBBZxG)EUEUUP)EUZZZ"
};
