/* XPM */
static char *ao0r7_8oe4u[] = {
/* columns rows colors chars-per-pixel */
"64 64 108 2 ",
"   c #373737",
".  c #3A3A3A",
"X  c #3B3B3B",
"o  c #3C3C3C",
"O  c #3D3D3D",
"+  c #3E3E3E",
"@  c #3F3F3F",
"#  c #404040",
"$  c #414141",
"%  c #424242",
"&  c #434343",
"*  c #444444",
"=  c #454545",
"-  c #464646",
";  c #474747",
":  c #484848",
">  c #494949",
",  c #4A4A4A",
"<  c #4B4B4B",
"1  c #4C4C4C",
"2  c #4D4D4D",
"3  c #4E4E4E",
"4  c #4F4F4F",
"5  c #505050",
"6  c #515151",
"7  c #525252",
"8  c #535353",
"9  c #545454",
"0  c #555555",
"q  c #565656",
"w  c #575757",
"e  c #585858",
"r  c #595959",
"t  c #5A5A5A",
"y  c #5B5B5B",
"u  c #5C5C5C",
"i  c #5D5D5D",
"p  c #5E5E5E",
"a  c #5F5F5F",
"s  c #606060",
"d  c #616161",
"f  c #626262",
"g  c #636363",
"h  c #646464",
"j  c #656565",
"k  c #666666",
"l  c #676767",
"z  c #686868",
"x  c #696969",
"c  c #6A6A6A",
"v  c #6B6B6B",
"b  c #6C6C6C",
"n  c #6D6D6D",
"m  c #6E6E6E",
"M  c #6F6F6F",
"N  c gray44",
"B  c #717171",
"V  c #727272",
"C  c #737373",
"Z  c #747474",
"A  c #757575",
"S  c #767676",
"D  c #777777",
"F  c #787878",
"G  c #797979",
"H  c #7A7A7A",
"J  c #7B7B7B",
"K  c #7C7C7C",
"L  c #7D7D7D",
"P  c #7E7E7E",
"I  c #7F7F7F",
"U  c #808080",
"Y  c #818181",
"T  c #828282",
"R  c #838383",
"E  c #848484",
"W  c #858585",
"Q  c #868686",
"!  c #878787",
"~  c #888888",
"^  c #898989",
"/  c #8A8A8A",
"(  c #8B8B8B",
")  c #8C8C8C",
"_  c #8D8D8D",
"`  c #8E8E8E",
"'  c #8F8F8F",
"]  c #909090",
"[  c #919191",
"{  c #929292",
"}  c #939393",
"|  c #949494",
" . c #959595",
".. c #969696",
"X. c #979797",
"o. c #989898",
"O. c #999999",
"+. c #9A9A9A",
"@. c #9B9B9B",
"#. c #9D9D9D",
"$. c #9E9E9E",
"%. c #9F9F9F",
"&. c #A0A0A0",
"*. c #A1A1A1",
"=. c #A2A2A2",
"-. c #A3A3A3",
";. c #A4A4A4",
":. c #A5A5A5",
/* pixels */
"N N N N N N N N N N N N N N N N N N N N N N N N N N N N N N N N N N N N N N N N N N N N N N N N N N N N N N N N N N N N N N N N ",
"N N N N N N N N N N N N N N N N N A N N N N N N N N N N N N N N N N N N N N N N N N N N N N N N N N N N N N N N N N N N N N N N ",
"N N N N N N N N N N N N N N N N A F N N N N N N N N N N N N N N N N N N N N N N N N N N N N N N N N N N N N N N N N N N N N N N ",
"N N N N N N N N N N N N N N A P W P N N N A A N N N N N N N N N N N N N N N N N N N N N N N N N N N N N N N N N N N N N N N N N ",
"N N N N N N N N N N N N N F Y Y A N A F N N N N N N N N N N N N N N N N N N N N N N N N N N N N N N N N N N N N N N N N N N N N ",
"N N N N N N N N N N N N N N N P A A N N N N N M N N N N N N N N N N N A Y A N N N N N F N N N N N N N N N N N N N N N N N N N N ",
"N N N N N N N N N N N N A A F F A N N N N N M M N N N N N A A A N A F W F N N N N N N F A A F F A N N N N N N N N N N N N N N N ",
"N N N N N N N N N N N N F F A N N N N N N N M M A A F F Y Y W Y Y Y P P A N M M M N N N N F P A A A A A N N N N N N N N N N N N ",
"N N N N N N N N N N N N N A N N N N N x x x M A F A A P W / ` / F F F A M k x M M M M N N N N F P P F A A A N N N N N N N N N N ",
"N N N N N N N N N N N N N N N N N N N M N A F F A M N Y ` ` Y P A A N M x M N N M M N N N N N N N P Y Y P A N N N N N N N N N N ",
"N N N N N N N N N N N N N N N N N N N A F F F F P W / W P A A Y Y A N N N N N N N N N N N N N N N A A P P A A N N N N N N N N N ",
"N N N N N N N N N N N N N N N N N A F A F P Y Y / F N x x x N F P N N N N N N N N N P N N N N N N N N N M N A A N N N N N N N N ",
"N N N N N N N N N N N N N N N N A A N N P Y Y F Y N x M N N N N F N N N N N N N N N P Y A N N A A N N N N N N N N N N N N N N N ",
"N N N N N N N N N N N N N N N N N N N A A A A N N N N A F F A A N N N N N N N M N N A Y P Y P P P P P F F N N M M N N N N N N N ",
"N N N N N N N N N N N N N N N N N N N N N N N N N A A N N N N N N N N N N N M x M x N A F F Y ` ] / W P F F F N M x x M N N N N ",
"N N N N N N N N N N N N N N N N N N N N N N N N N N N N N N N N N N N N N N N N M x x M N F A F W ` ` F M M F F A N M x N N N N ",
"N N N N N N N N N N N N N N N N N N N N N N N N N N N N N N N N N N N N N N N N N N N N N A Y W F F W / / Y A F F F F A N N N N ",
"N N N N N N N N N N N N N N N N N N N N N N N N N N N N N N N N N N N N N N N N N N N N N N P F N M x M F P W P Y F F F A A N N ",
"N N N N N N N N N N N N N N N N N N N N N N N N N N N M N N N M N N N N N N N N N N N N N N F A N N M k x N W P Y Y P N A A A N ",
"M M M M M M M M M M M M M M M M M M M M M M M M M M M M M M M M M M M M M M M M M M M M M N N N A A F A N M N N A A A N M N N N ",
"Y Y Y Y Y Y P Y Y P Y Y Y Y Y Y P Y Y Y P Y P Y Y Y Y Y P Y Y P P Y Y Y Y Y Y Y Y Y Y Y Y Y P Y Y Y Y Y W W Y Y Y Y W Y Y Y Y Y ",
"]  . .] ] ] ] ] ] ] ] O.O.O.O.&.&.#. .] ]  . .O.O. .]  .] #.#. . .O.#.:.&.O. . . . .] ]  .#.#.]  .O.&.:.&. .] ] ] ] ] O.&.&.O.O.",
"F F F F A A A N N M M N N A A A P Y Y Y P P P Y F A N F A F P P / ` Y A N N F A A N M F A A P P / ` Y A M M M N F F P Y P P P F ",
"W / ` / W Y F F F N x M x M N A F P P / W / F A N A N P F P W ] ` W F A A F A M M x N Y Y W W ] ` Y F A A N F Y P P P A A N A A ",
"F P / ` W F M N F A A N M k N F Y P N A F P A A N A F P Y W W W W Y P F A A M N F F P Y Y / W W W Y P F F Y Y P A N A A N A F F ",
"Y Y F Y / / W F A F F F F A P Y P A N A N M x N A F A A N A A F A N x x x x k x N M x A A N A F A N M M N A P A N A A F W Y P A ",
"Y P F M M A P Y W P P F F F F P A A A A x x x A F N N M x N A N N x x M A x k k k x M A M N N A A A A A A A P F F F P / W P A N ",
"F A F N x k x M W Y Y Y P A F P F N A M N A x M A A N M N N A A N N A Y P M M M x M N F A N A A N A A P F P F A A F P F N N N N ",
"A A F F F A M M A N F F Y F F P P A A F P A N N N A F A F P P F P P P Y A F A A N N N N A F P F A A N F Y F N N F F A N M M N N ",
"M M N N A P P P F A N A A F N A A A A A M M M A P F F Y / / ] ` Y F F F N N M M A N N A N N A F P F A A P Y Y P F F A F N N N A ",
"M x x M N A F F Y W F N N A A N N A N A N N F F A M M F / ` W F A F A N x x M M N A N A F F A A F Y Y P P F F W ` W Y Y F A A F ",
"M x x x N F A N N F F A x x N P F P A N F F F F A P W / / Y W Y P F F A A N N M A N A A F A P W Y P F Y Y F A N F W ` ] / P F A ",
"N M x x N A N N M M N A x k M A A F P F F F P P F P F N N F P P / / ` W W Y F F A N M M M M N F P Y Y W M M N M k M F Y ` / Y F ",
"N M x k x x M M M M M M M x k M A F N N P Y Y Y W M x k x N A F P Y / ` W F N N F F F F x k N A N N F P A N M k k k x A F F P P ",
"N M k M x k M A A N N N N A A A F A A N A F A N A M N A A F A F F Y P W ` / Y A A F F P F A F F F F A N A N A M M x x M N A A F ",
"M M M A N M N P F P A P M x M A A N N F A F A A A F A N A A N N W P N M N F Y W Y F P P P Y W / ` / W Y P A A N x M M M M F A N ",
"M N N A F A A F P W Y / A M k x M N A F N A A F P F A A N A N A P N M M x k M N / Y Y Y P P F Y / ` W F N N F A N M M x M N A N ",
"N N N N N A A F F F F P W / P A N N Y W A A N N A F F A A A A A A A N A A N x M F A F F F A F Y F W / / Y A A A F A A N N A N A ",
"A A F A N N M A F F F A N F W ` / P Y F A F M x M N Y Y Y F A A N M N A A A A A N N N A A A W P N M N F Y W W P P F F F A A A F ",
"N N F F A A M x M N A F A N F W ` ` W F P F N M N M N F F Y Y A N M x x M x N N M N N N F F F A N M x k M N W Y Y Y F A A F A A ",
"N N N N N A F F N N N A A F P W W / / W Y P F M N N x x M N M N A A A N M k x x x M M A N N A N A F F N x M A A F F F A F Y Y N ",
"A N A N A A P F A A N A A A A F F F F A A F A A A N x M M x x M N N N A A A N A F N x A P A A A A A F F F F A A A F F A F P Y A ",
"&.&.&.#.&.&.&.&.#.&.&.#.#.&.#.&.&.&.:. ./ ` &.&.&.#.#.#.#.#. .W W #.:.:.&.&.&.&.&.&.&.&.:.:.:.#.#.&.&.:.&.&.&. ./ W #.&.&.&.&.#.",
"` P P P F A F F F A A F F F F P W / W x < w W / Y P F P F P k % = W ` W F F P P P P F P F P W Y / ] ] W F F N k % = W / / / W N ",
"` W / W W P F A A M M M N N A N F Y P d . % Y P N A N F F N d . % Y F N N F A N M M x P P P Y / ` W F M M N N a o % Y P A N N x ",
"M M k k k k a t t t w 7 w w t t a a t 7 o % k a a t a a d a w o % x d a a a a t t w t d a k k k d a a a a t a w % % d a a a t a ",
"F F N N A F A x x x x x t . o M x k k x x x k M M M M M x x M M M a < 7 M k k k x M x M k x M N N x a < 7 N N M M M M N A a % % ",
"` Y A A F Y W / Y F P A d o % Y A N A A M k x A F A M N x N A A N d = 4 Y M k k k x M N M N A A A N d o < W Y F A A F / W d o   ",
"W A A k k k x N Y F P A d . % P F M N x k M x M M M x x x x M M x a . % A M k k k k M N M M M x M M a . o P F A N F F F N a o   ",
"d w w d d d d a d d d k d t w k k t w 7 7 = = 7 7 w w t t a a t a w % = t t t t t t t a w = = w w 7 7 < 7 d d t 4 7 t t t w 4 4 ",
"d o % P F F P F A A N A P F N A F F A A d . = F P F F Y W / / / P k < 7 P F M M A A A N d . % F F A N F Y Y P k o % P F N A N P ",
"a o % P A A P P Y Y A N N A A N N A A N d % w W P A N F / ` ` Y A d o % Y M M M N A N A d . % Y Y Y P F F P F d o % Y Y F N A F ",
"w o % x k k k d k M k d a d k d d k d a w < 7 N k a d x N N x k d w . o x d d k k d d d w . % N x x x M k k k t . % N M x d k k ",
"k k d d k k t = = k k d t a t w < 7 x k d k k x k d k d d x k d d k k M M t = = k k a d d a a d k x M x d a d d a d t < 7 k x k ",
"N N M x x M d o % P A N M x x d < t W F P Y W Y Y N x k x A F P Y / ` ` Y d o % Y F A N M M N A A A Y W N N M x k x d < w W W P ",
"M M k x k k a o % P A N N A x d o < Y A F A F N F M x M N N N F F F Y / / k o % P F P Y A M N N A A N N A N N M x k a . % P F F ",
"t t w t t w 7 = = t w w w t t w = = d a t t a t t t t a a a t t t w w t a w = = a a t t w w t t w w w w w 7 w w w w 4 % % w 7 w ",
"N N N N N N N N k o = A M M k x M N N A N N A F A A A N N N N N d < 7 A M x N A P P F k % % F F P P N M x M N M M x x k x M N N ",
"N N N N A A A F d o w W W P A M M N P Y A A N A F F F A A A A N d o = Y N M x N Y F P d . % Y W Y / ] W A M A F F A N M N A A F ",
"x M x k x x x M a < 7 A A P F A M M A N x x x x x M A N x x x x t . % A N M x k k x x a . % F A x M N F P F x M M M M x x M x N ",
"t t a t 7 7 a t t t t d d d k d d d d t w w w w w 4 % % w t t t w 7 w a d a a a t t t t w w t 4 4 t a t a a d d a t t w t t t w ",
"N A A d 4 t Y F N N A F F P W W / ` ` W Y P F N N d . % Y F A A A A A N M x M M x M A A A N d < w Y F N M N P F F P P A F Y P P ",
"x M x a o 4 P A N M x M M M N A A A A A A A M N M d . o A M d k M M M M M M x x M k k M N M a . % P A N N M M M N A N M A F P A ",
"P P P P M N W Y P P Y P P Y P P Y Y P P Y Y P P Y F M N Y Y P P P P P P P P Y Y Y P F P Y P F M M Y Y Y Y P P P Y P Y Y Y Y Y Y "
};
