/* XPM */
static char *a3q0f_dqrpw[] = {
/* columns rows colors chars-per-pixel */
"64 64 69 1 ",
"  c None",
". c #357614",
"X c #397E16",
"o c #3E811D",
"O c #3E821C",
"+ c #3F801E",
"@ c #428521",
"# c #468725",
"$ c #478D24",
"% c #4B8C2A",
"& c #4F8F2F",
"* c #52982F",
"= c #519131",
"- c #57A432",
"; c #D2C71E",
": c #D3C928",
"> c #D9D36B",
", c #DED76A",
"< c #DED76B",
"1 c #DFD76B",
"2 c #DAD36C",
"3 c #DBD46D",
"4 c #DBD56E",
"5 c #D8D173",
"6 c #D8D273",
"7 c #D8D274",
"8 c #DFD870",
"9 c #DDD778",
"0 c #DDD779",
"q c #E7E29E",
"w c #EAE6AD",
"e c #E4E1BA",
"r c #E5E3BC",
"t c #E4E2BF",
"y c #E9E6BF",
"u c LightGray",
"i c gainsboro",
"p c #DDDDDD",
"a c gray87",
"s c #DFDFDF",
"d c #E0DFD0",
"f c #E9E6C0",
"g c #EAE7C4",
"h c #EAE7C5",
"j c #E7E5D0",
"k c #E8E7D1",
"l c #E2E2E2",
"z c #E6E6E6",
"x c #E7E7E7",
"c c #E9E9E9",
"v c #EAEAEA",
"b c gray92",
"n c #ECECEC",
"m c gray93",
"M c #EEEEEE",
"N c #EFEFEF",
"B c gray94",
"V c #F1F1F1",
"C c gray95",
"Z c #F3F3F3",
"A c #F4F4F4",
"S c gray96",
"D c #F6F6F6",
"F c gray97",
"G c #F8F8F8",
"H c #F9F9F9",
"J c gray98",
"K c #FBFBFB",
"L c gray99",
/* pixels */
"                                                                ",
"                                                                ",
"                                                                ",
"                                                                ",
"                                                                ",
"                                                                ",
"                                                                ",
"                              SSSKL                             ",
"                            KSSSKKKKL                           ",
"                          KKnxxASKSbSKL                         ",
"                         KKSBiinKSnixAKK                        ",
"                        KVVVniinSViiibVSK                       ",
"                       SbbliiisxbxiiislnKK                      ",
"                      KVbbliiiibbxiiiilbnSK                     ",
"                     KKVbbjtte722>5efdislSKK                    ",
"                     SSnbbhwq<:;;;:<wejiinSK                    ",
"                    KSVnbbhq8;;;;;;;8qfiiinKK                   ",
"                    KSVbbbf<;;;;;;;;;<eilinKK                   ",
"                   KKVbbbb0:;;;;;;;;;:6iiinKKK                  ",
"                   KKSVnbb4;;;;;;;;;;;>xbnSKSK                  ",
"                   SSSSVnn4;;;;;;;;;;;4bbSKKKK                  ",
"                   KSVnnxx2;;;;;;;;;;;>bbVSKKS                  ",
"                   SVbliii7:;;;;;;;;;:0bbbVSSK                  ",
"                    SSbiiie<;;;;;;;;;<ybbbSSK                   ",
"                    KSVniifw8;;;;;;;8qhbbVSSK                   ",
"                     SSViideq<:;;;:<qwfbbSSS                    ",
"                     SSVllijfe6>2>5effkNnSSS                    ",
"                      KVbbsiiiixnxiiiixSSSS                     ",
"                       KbbliiisxnziiiizASS                      ",
"                        VSSSViinANssNAAAV                       ",
"                         SFKKnlnGAnNGKGA                        ",
"                          KSSSbVGGKKNnz                         ",
"                            KFFSGGLLiu                          ",
"                              SSAGL                             ",
"                                -=                              ",
"                                 X                              ",
"                                 +@                             ",
"                                  X                             ",
"                                  ##                            ",
"                                   #                            ",
"                                   =                            ",
"                                   =                            ",
"                                   =                            ",
"                                   =                            ",
"                                   &                            ",
"                                  &=                            ",
"                                 +=                             ",
"                           .&    =                              ",
"                            .&   &                              ",
"                            ..o @*                              ",
"                             ..oo     %%                        ",
"                              ..o    %.                         ",
"                                o   %.                          ",
"                                $   %                           ",
"                                **  .                           ",
"                                 * %.                           ",
"                                 %%.                            ",
"                                 %.                             ",
"                                oO                              ",
"                               OOO                              ",
"                              oOX                               ",
"                              O.                                ",
"                              .Oo                               ",
"                             ....o                              "
};
