/* XPM */
static char *_391eade0ec34307fa0a52aefe678456zCbFBk1cMYSo0tH2[] = {
/* columns rows colors chars-per-pixel */
"64 64 107 2 ",
"   c black",
".  c #2D2D2D",
"X  c #393939",
"o  c #2C5B14",
"O  c #2A600F",
"+  c #2D6711",
"@  c #2F6A11",
"#  c #306D12",
"$  c #336B17",
"%  c #336C17",
"&  c #346D17",
"*  c #316419",
"=  c #327112",
"-  c #337413",
";  c #347613",
":  c #387E15",
">  c #367219",
",  c #38721B",
"<  c #387619",
"1  c #3A711F",
"2  c #3A791B",
"3  c #3D7B1D",
"4  c #3D7E1C",
"5  c #3B6B23",
"6  c #3A6D21",
"7  c #3C6D24",
"8  c #3D7222",
"9  c #3E7423",
"0  c #407F1F",
"q  c #407C22",
"w  c #447D27",
"e  c #437A28",
"r  c #447929",
"t  c #467F2A",
"y  c gray28",
"u  c #4E4E4E",
"i  c #5A5A5A",
"p  c #5D5D5D",
"a  c gray42",
"s  c #7E7E7E",
"d  c #3E801D",
"f  c #3E821C",
"g  c #458026",
"h  c #458028",
"j  c #478528",
"k  c #48832B",
"l  c #488629",
"z  c #4A842D",
"x  c #4B8B2A",
"c  c #D2C71E",
"v  c #D3C928",
"b  c #D9D36B",
"n  c #DED76B",
"m  c #DAD36C",
"M  c #DBD56E",
"N  c #D8D173",
"B  c #D8D274",
"V  c #DFD870",
"C  c #DDD778",
"Z  c #DDD779",
"A  c gray53",
"S  c #888888",
"D  c #989898",
"F  c #A4A4A4",
"G  c #A5A5A5",
"H  c #AAAAAA",
"J  c #ABABAA",
"K  c #AEAEAE",
"L  c #E7E29E",
"P  c #EAE6AD",
"I  c #E4E1BA",
"U  c #E4E2BF",
"Y  c #E9E6BF",
"T  c #C0C0C0",
"R  c #C1C1C1",
"E  c gray77",
"W  c #C5C5C5",
"Q  c #C8C8C8",
"!  c gray80",
"~  c #CECECE",
"^  c gray82",
"/  c LightGray",
"(  c #DADADA",
")  c gainsboro",
"_  c #DDDDDC",
"`  c #E0DFCF",
"'  c #E9E6C0",
"]  c #EAE7C5",
"[  c #E7E5CF",
"{  c #E8E7D1",
"}  c gray88",
"|  c gray89",
" . c #E7E7E6",
".. c gray92",
"X. c #ECECEC",
"o. c #EDECED",
"O. c gray93",
"+. c #EFEEEF",
"@. c #EFEFEF",
"#. c gray94",
"$. c #F3F3F3",
"%. c #F4F4F4",
"&. c gray96",
"*. c gray97",
"=. c #F8F8F8",
"-. c #FBFBFB",
";. c gray99",
/* pixels */
"                                                                                                                                ",
"                                                                                                                                ",
"                                                                                                                                ",
"                                                                                                                                ",
"                                                                                                                                ",
"                                                                                                                                ",
"                                                                                                                                ",
"                                                            #.*.*.*.                                                            ",
"                                                        *.$.*.*.*.*.-.O.                                                        ",
"                                                    #.*.O. . .#.*.-.*...O._                                                     ",
"                                                  O.*.*.@._ _ X.*.*.O._ ..#.$.}                                                 ",
"                                                ^ *.#.#.O._ _ ..*.O._ _ _ ..$.*. .                                              ",
"                                              E ....} _ _ _ _  ... ._ _ _ _ } #.-.*.                                            ",
"                                            G $.....} _ _ _ _  ...| _ _ _ _ } ..O.*.;.                                          ",
"                                          S *.$.....{ ] Y I B m M m N I Y [ _ } } *.-.;.                                        ",
"                                          -.$.X.....] P L n v c c c v m L U ` _ _ ..#.;.                                        ",
"                                        u *.#.......] L V c c c c c c c V L U _ _ _ O.-.;.                                      ",
"                                        -.*.#.......Y m c c c c c c c c c n I _ _ _ O.-.-.                                      ",
"                                      . -.#.........C v c c c c c c c c c v N _ _ _ #.-.-.*.                                    ",
"                                      . *.*.#.#...X.M c c c c c c c c c c c m  . .O.#.-.-.*.                                    ",
"                                      W *.*.#.#.X.X.b c c c c c c c c c c c m ....=.-.=.-.#.                                    ",
"                                      S *.#.O.O. . .m c c c c c c c c c c c m X...#.=.=.-.O.                                    ",
"                                      i *. .} _ _ _ N v c c c c c c c c c v Z ..X.X.#.=.*.}                                     ",
"                                        D *..._ _ _ I m c c c c c c c c c m Y ..X.X.#.*.*.                                      ",
"                                        y *.#..._ _ U L V c c c c c c c n L ] X...O.*.*...                                      ",
"                                          Q *.#._ _ [ U L m v c c c v m L P ] X...-.*.#.                                        ",
"                                          a *.O.} } _ ` ' I N b M m N I U U { X.X.O.-.}                                         ",
"                                            X *.O...} _ _ _ _  ... ._ _ _ _  .*.*.-._                                           ",
"                                              p O...} ( _ _ _  ... .) } _ _ { &.*.^                                             ",
"                                                F *.*.*.O._ _ O.*.o.) ) #.*.*.&.R                                               ",
"                                                  K *.-.=..._ +.*.%.o.+.-.-.*.T                                                 ",
"                                                    A _ -.*...#.*.*.-.-...o.H                                                   ",
"                                                        s ( *.*.*.=.-.*.~ H                                                     ",
"                                                            R / W ! p                                                           ",
"                                                                x z                                                             ",
"                                                                  4                                                             ",
"                                                                  , ,                                                           ",
"                                                                    3                                                           ",
"                                                                    q 8                                                         ",
"                                                                      q                                                         ",
"                                                                      t                                                         ",
"                                                                      k                                                         ",
"                                                                      z                                                         ",
"                                                                      r                                                         ",
"                                                                      t                                                         ",
"                                                                    5 e                                                         ",
"                                                                  o t                                                           ",
"                                                      # h         7                                                             ",
"                                                        ; z       5                                                             ",
"                                                        # ; 2   * h                                                             ",
"                                                          @ ; 4 d           6 8                                                 ",
"                                                            @ ; d         5 #                                                   ",
"                                                                2       9 -                                                     ",
"                                                                0       9                                                       ",
"                                                                w w     #                                                       ",
"                                                                  l   6 +                                                       ",
"                                                                  g x -                                                         ",
"                                                                  j O                                                           ",
"                                                                % d                                                             ",
"                                                              % d %                                                             ",
"                                                            & d #                                                               ",
"                                                            < ;                                                                 ",
"                                                            = : >                                                               ",
"                                                          @ ; ; ; %                                                             "
};
