/* XPM */
static char *a5r69_v85te[] = {
/* columns rows colors chars-per-pixel */
"64 64 150 2 ",
"   c #2E1E13",
".  c #301F14",
"X  c #2F2018",
"o  c #322116",
"O  c #35241A",
"+  c #38271C",
"@  c #37281E",
"#  c #3B291E",
"$  c #3D2C22",
"%  c #3F3026",
"&  c #412F24",
"*  c #443226",
"=  c #463429",
"-  c #49362A",
";  c #4C392D",
":  c #503C2F",
">  c #4E3C31",
",  c #523E32",
"<  c #554236",
"1  c #554237",
"2  c #554337",
"3  c #544236",
"4  c #564336",
"5  c #564337",
"6  c #554235",
"7  c #574437",
"8  c #554135",
"9  c #584336",
"0  c #594336",
"q  c #584437",
"w  c #5A4437",
"e  c #5A4537",
"r  c #594436",
"t  c #574538",
"y  c #574539",
"u  c #564438",
"i  c #584538",
"p  c #594538",
"a  c #5A4538",
"s  c #5B4538",
"d  c #5A4539",
"f  c #584639",
"g  c #594639",
"h  c #5A4639",
"j  c #58463A",
"k  c #58473B",
"l  c #59473B",
"z  c #5B473A",
"x  c #5B473B",
"c  c #5C4538",
"v  c #5D4638",
"b  c #5C473A",
"n  c #5A473C",
"m  c #5A4639",
"M  c #5A483B",
"N  c #5B483B",
"B  c #5C483B",
"V  c #5E483A",
"C  c #5F483A",
"Z  c #5E483B",
"A  c #5A483C",
"S  c #5D493C",
"D  c #5F493C",
"F  c #5D4A3D",
"G  c #5E4A3D",
"H  c #5D4A3E",
"J  c #5F4B3E",
"K  c #5D493C",
"L  c #60493B",
"P  c #614A3C",
"I  c #614B3D",
"U  c #624B3C",
"Y  c #624B3D",
"T  c #604A3E",
"R  c #614B3E",
"E  c #624B3E",
"W  c #614C3D",
"Q  c #624C3E",
"!  c #634C3E",
"~  c #634C3F",
"^  c #644D3E",
"/  c #644D3F",
"(  c #654E3F",
")  c #624C3E",
"_  c #5F4C40",
"`  c #604E41",
"'  c #624E40",
"]  c #614F42",
"[  c #654E40",
"{  c #654E41",
"}  c #644F41",
"|  c #654F41",
" . c #664F40",
".. c #664F41",
"X. c #674F41",
"o. c #654E41",
"O. c #665041",
"+. c #675041",
"@. c #675042",
"#. c #675143",
"$. c #675447",
"%. c #665143",
"&. c #685142",
"*. c #685143",
"=. c #695243",
"-. c #685244",
";. c #695244",
":. c #695344",
">. c #695345",
",. c #6A5344",
"<. c #6A5345",
"1. c #6B5445",
"2. c #685446",
"3. c #695547",
"4. c #6A5446",
"5. c #6B5446",
"6. c #6A5547",
"7. c #6B5547",
"8. c #6C5546",
"9. c #6C5547",
"0. c #6D5647",
"q. c #6A5344",
"w. c #695548",
"e. c #6A5648",
"r. c #6A5649",
"t. c #6B5749",
"y. c #6E5749",
"u. c #6C5649",
"i. c #6C584A",
"p. c #6D584A",
"a. c #6D594B",
"s. c #6E5A4C",
"d. c #6F5B4D",
"f. c #6E594C",
"g. c #725B4C",
"h. c #755D4F",
"j. c #735B4C",
"k. c #775F50",
"l. c #755E51",
"z. c #785F51",
"x. c #776052",
"c. c #7A6254",
"v. c #7D6759",
"b. c #7F685A",
"n. c #836B5C",
"m. c #866F61",
"M. c #877062",
"N. c #8A7364",
"B. c #8E7768",
"V. c #90796A",
/* pixels */
"; ; ; 6 , - - = - = - * & & . + O . . . O . . . = > u ` { { >.*.1.*.,.( ( *./ ( S / Y / L / / L *.U *.U { S 8 S b 6 - ; - - ; * ",
"; - ; - - ; ; - - - * = & . . . . O $ . . . . . $ = , , b 0 / U 1.8.,.( ( / &.U / / / &.Y *.L / / / / { { L S H S 6 : * ; ; - * ",
"; = = ; = ; = = - - & - $ . $ + . . + + $ O . O . + & ; p b Z Y *.*.*.*.L / &./ Y { L / L *.{ / *./ / c *./ b p H p q ; - - - - ",
"; ; 6 b ; = = = ; = - * $ & , , c T [ , = > > * $ $ - * & ; u Z ( U 8.,.*.Y / / U U / / *.*./ >./ / / / / / S H H : ; ; - - ; : ",
"- * p 6 p = = - = = = > _ r.#.-.;.;.5.5.5.;.;.=.-.w.` Z , > > > p { W @.8.U *./ *.*./ { *./ / L *./ ( ( ( *.S p L , , * - : - - ",
"* , 6 6 , 6 > - = > $.f.f.r.X.{ { { ;.;.;.;.=.X.*.*.5.*.*.Z > > 8 Y / Y / / / &./ / / *.L L / *.*.*.U ( U / b p 0 : 0 - & - * * ",
", , 6 6 H 6 ; = ; $.f.p.y.Y { ` ^ Y Y =.{ Y ^ { *.` 5.z.l.y.n > > 8 1 { U &.U / / / *.&./ L W U *.,.( / U U H S 0 : : : : - - - ",
"b 0 0 p q p 7 = _ i.p.w.5.T T T c - - , L { =.^ { * & T g., , 3 > > , p p { >./ / L / / / L / *.*.( ( 8./ *./ Y : : : , : - , : ",
"8 7 q 7 A u 3 = _ a.r.r.*.Y Y ; # # # & - L U ^ ; + . # ; , , , > - > > 3 3 3 k 3 ( ( ( / @./ L *.( ( ( *.*./ S : : 0 6 : : 6 : ",
"8 8 6 q u u 3 - $.$.>.{ / Y , O + O . # * ^ ^ L # . O O $ - , u A > ; ; 8 f 3 3 M 3 W O.( / / / ^ 8.8.8./ ( U / : 0 : 6 : 0 6 : ",
"8 7 8 7 p _ 6 - $.w.>.{ U c O . . . . $ ( ( ( , . . O O @ * , , _ _ > - ; 3 8 7 8 p W { *.*./ *.^ ( ( *.( ( *.L ^ : : : : : : 6 ",
": 7 H p H A p > $.$.*.{ L O . O . O - L ( 0.8.L O . . O . $ > _ y _ y % % 3 8 7 u N S W *./ / L v 8.( 8.*./ / ( ( : : : : : : : ",
"6 q G G 6 Z n , &.&.>.&.c o o # O ; , ,.&.1.&.U O O . . . $ , _ _ k _ % - , 8 8 u W / @.@.{ / L / ( ,.( ( ( ^ U U : ; ; 6 : 0 6 ",
"8 8 N q ' b u , { >.&.U & o O O & U y.=.&.&.&.U ; + + + $ * _ _ k _ 1 % = , 7 u 3 @.{ W Y W S S L L / / ^ ^ ( / ; : : : : 6 0 : ",
"S q ' W Z b , 1 { j.&.U - + o # : j.z.U 1.U U u , & # & * _ { { _ $.> % - 1 , p @.W Y L S q : ; ; 0 L S U U U : : : 0 : : : : : ",
"N S H p u b u u y.z.z.y.U : & 0 h.z.&.; L 0 , , , ; ; = , $.h.f.$.i.2 % > , 6 A H S b ; ; ; ; @ O O = : 6 0 0 6 : 6 : : : 6 6 : ",
"S S p G p H q p y.l.l.z.z.j.j.z.;., & . . + & = = ; - - _ w.z.n.l.r.; * ; 7 7 7 8 8 : : 1.n.n.N.M.m.A - % > > ; 8 > 8 ; : ; 8 6 ",
"S q W p S N u 8 X.z.z.c.z.z.j.j.;.. + . + + . . & = - > _ h.n.m.c.7 * ; 8 8 8 7 : ; : z.k.k.n.B.N.N.v.v.%.3 - ; ; 8 4 ; 8 : V v ",
"p q S p q H p > ` g.c.z.z.z.c.j.j.  . . + + + . . $ = : { n.m.m.c.> * , : 8 8 > ; ; k.j.n.g.z.z.V.V.B.N.n.A ; * ; ; ; 8 4 ; V V ",
"S H p S S H A p , >.l.l.z.z.c.z.L & . . . + . . $ . . - ;.z.n.m.#.- ; : 8 8 8 ; ; 4.k.g.z.g.z.z.x.c.i.$.4.x.4.: # $ = ; ; 8 M V ",
"N S S H q H S p > 8 r.g.g.l.f.1.: . . + . . . + . . . & y.z.l.l.1 > , , 6 6 ; > ; h.O.6 0 - : - - c ( ,.( 0.N.n.8 $ $ = ; ; V M ",
"H W b p p S b p 1 ; > ' r.f.y.&.= + $ . + + . . . $ $ * h.h.$., > , , 8 8 u ; ' d.i.S 6 O O . + + @ : ^ ( 1.N.B.b.$.> $ * = 8 M ",
"b p H W S S p S p 8 > 1 ' y.f.{ * + . . $ O + + . . . > y.{ > ; , p 6 A 6 , , b.n.' , O + . O O o o : ,.8.0.( B.V.N.n., @ * ; * ",
"; Y p S q S S p n u 3 ; > n ' 4., $ . & > , * - ; = ; ' ` > - , 6 H p H n > $.n.m.p - O . # . . O # U 8.8.8.0.( #.f.g.i., % $ * ",
"= H p G H H S H N 7 7 > = = u @.X.L , , , , , , , > n X., ; , , H p L Y p ; v.m.M.z.$ O O O . O # : 1.0.8.,.U # O b *.,.,.S * $ ",
"$ ; N _ N A p N G N 8 8 ; % % H X.X.5., > , , , { ` { , - ; , , p W / H ; - b.m.M.z.+ . o O . + & ( ( ,.1.8.+ o o O O & 0 / Y $ ",
"@ * - p G A p p 3 A > > ; = $ * c { { { { , > <.{ _ ; = ; > , ` { S W p > _ m.b.N.U & . O O + $ c L ( 0.8.8.. . O o o O O : { > ",
"$ = - - ; p _ , ; > 8 > > = * $ * , { X.<.<.<.w., = & - > , , , W Y W 6 > b.b.m.;.Y ; # $ , L L ^ L ( 8.^ ( o o     o o o $ b 1 ",
"= = - ; - ; , , 8 > 3 3 > - - & $ & , { 5.5.` , & & = - ; , , ` Z d _ > _ s.d.$.&.*.T T U L L c U L L 8.,.&.& o o o o o + + b U ",
"= = - - ; = = , 3 ; ; ; 3 = - = & O % > , , $ $ $ & = > n , , c T _ u ; 2 s.#.#.0.&.L U T L L L L L L =.,.*.: $ # O O O . O >.>.",
"= = = - * ; * : > 3 ; 3 > > > - & $ . $ $ O $ O $ = ; , , _ > ` T T 1 > l.d.#.` 1.1.L L b U L U L &.L L 8.8./ L - * + o O , 1.y.",
"$ $ = = ; - ; - > - ; ; % > - ; = . . X O O X $ & = ; ; , n , , Z Z _ = d.#.X.[ &.&.U Y b L , ; ; , L L c / 8.( ^ c - & ; >.{ y.",
"& # * - - - - * - - - ; - * - * X   . % $ . O $ $ = - > 8 p A _ H p n = l.X.' { <.{ X.L * . . + . . $ # - , L Y X.{ &.U ;.=.=.{ ",
"# & * - - * - - - - & & - - - @ $ $ $.] _ _ $ @ . $ - > 8 A p A p H 1 = l.X.>.{ *.L - # # . + . & . . . . # & = Y 5.{ ^ =.&.&.c ",
"* # & - & * - - - * ; ; * : * $ % , _ ] $.$.' > @ O = > > 1 1 p n u u - l.5.>.{ L , $ . . . + . . + . . . . . $ - L U &.>.{ U Z ",
"- # & - : - - - - - ; ; ; & $ $ = _ n $.$.$.r.A n % % = > , 3 y ' 1 6 > z.j.;.{ { . &   # . + . $ .   & . + . $ + - , Y &.U &.Y ",
"* # * - - - - : - - - - & * = > , , ` w.>.#.' $.l.y.1 ; % > 2 3 u 1 1 n c.c.X.{ { & & . . + . . . . + . . + . . o * ; q 1.1.{ { ",
"& # - - : - - * : - - * * ; 6 q _ _ _ w.>.>.#.b.c.c.i.$.3 - 3 2 Z 1 , _ z.c.l.*., $ $ $ $ O . . . + . + . . $ . + O & , &.1.*.{ ",
"# - - - * - - - - - & & : ( 8.S d d , { n.n.c.n.n.n.c.x.#.= > 3 n 1 1 ; l.c.z.5., $ $ $ + & . . . . . . . . + . o o # , ( 8.*.*.",
". : - - - - - - - * * : ,.h.h.U Z $ $ > h.n.n.n.c.b.c.b.l.1 = 6 p 6 1 * X.z.c.j.{ & $ + $ $ $ # + + . . + + +   + . O - U 0.g.8.",
"+ ; * - ; - & - * * q U h.k.j.z.$ . + $ L c.n.n.n.n.n.n.z./ $ > 6 8 6 - = f.z.y.y.> & $ $ $ $ & $ # O . O o o O . o o $ c g.8.$ ",
"+ - - ; - ; : - & : L 0.h.j.z.j.$ O . + = &.n.n.n.n.n.v *.k.$ 6 , , 6 ; = n r.r.y.{ T , - > > n L ( , - $ # o O   . o + L y.,.+ ",
"- - * - - - & & - L g.z.c.j.j.*.$ O . + O : *.n.n.c./ U : L * , u 1 , > & ; T y.y.f.j.{ _ n ` { ^ ( ( & + o o O . + O $ g.Y : O ",
"* - ; - * & # & : 0.1.z.k.n.n.j., + + . . # 0 ( / W L L : 0 = ; , , , , ; & ; T y.j.h.j.X.{ w.{ ( =.,.U : * # o # ; ; g.k.; & # ",
"- = * = & + # , ( 1.g.k.g.n.n.( ( * # + o O * L / L c / ; , - ; : , , , , > * ; T h.z.z.h.{ $.{ =.=.&.^ L L 0 q ( h.n.m.8 * * ; ",
"* ; - = & # *.y.^ - # ^ j.j.j.,.( ( - O o o o & 8 U U L : 8 ; ; , , , > , > - & = z.n.v.l.w._ _ L &.=.{ 0.0.0.g.b.B.N.k % = * * ",
"- ; = = * ; L &.- o o : 1.z.k.8.1.( *.: # O o O , / / / : 8 - = ; - - - ; ; ; - * = n.m.v.w._ n c ` ^ { 8.8.8.c.n.m.$.= = ; ; ; ",
"; * + , c b ( &.O o # $ U ( 8.( ( ( *.( / * & L U @.L *.: : % * - * - - = - - - = = = z.M.d.f._ _ _ { Y 8.y.g.n.b.8 = = = ; ; = ",
"- ; + Y U ,.,.&.O o + - L ( ,.^ ( 0.( ( 8.( ^ ^ ( *./ U ( q $ - - - - - - - - - - = % - l.d.l._ d ` c _ _ w.v.l.= % = > > = > = ",
"* @ $ / ( ,.( L & # $ ,.,.1.z.( ( ( 8.^ ( ( ( U U U L / ( 8.$ = - : - ; - * - - ; * * $ - u l.` ` ` , _ _ { _ % % ; = > > = ; > ",
"= O * @.( ( *.( L $ - 0.g.y.j.0.0 * $ + + ; ^ U U ^ L L k.g.* * - - & - - * ; - - ; * % $ = { *._ ` { _ n = $ & ; ; > = ; - ; > ",
"= @ , b ( j.j.j.0.L ( j.j.j.j.* + + o o o + * U ,.( y.8.i.g.$ * ; : - - - - * ; ; = ; = $ $ & - _ _ _ ; % $ = ; ; = > > ; = > = ",
"; @ - u { g.0.h.g.U ^ ^ ( 8.: o o o o o O O # ; ( j.j.g.0.j.= * - - - * - - : * = - = = - * * & $ & & & & - ; - > > ; = = ; = * ",
"- = = 6 { g.g.g.0.( ^ v ^ : o o O + o o O + # ; *.h.j.j.j.k.; - - - * - - - - - - = ; * - * - * & = & - - ; - ; > = 1 > = = = = ",
"- > = > b y.j.g.U L ^ L : o O o o o o o o O @ ; ,.y.j.j.k.,.- : : - - - & * ; & * * = = * * * * = = ; ; ; - ; > = > > ; > ; ; ; ",
"- - = > ; { g.Y U ( ( : o O o o o O o o O # = ; ( j.g.N.k.M 8 8 , : , - - ; * - ; - - * - : - * - = & ; * - - ; = ; ; = ; ; ; * ",
"; ; = % = G 8.@.L U U : o + O . X O ; $ $ * ; ; @.g.M.N.d.; u 8 0 , , , - ; - - - - ; - - ; - - - - - : - - : - = 1 ; ; * ; = > ",
"= - = - $ ; @./ U ( Y ; # + + & > > ; = = = ; ; 0.n.N.c.O.8 J O., , c , , ; ; * * = * - - - - - - - * ; : ; = - = > ; > & > & ; ",
"; % - = ; $ = S U / L L , - & > > > - ; > ; u > b.M.g.O.u O.&.2.8.,.8.,.=., , , - * , , : : , - - - * : - * - ; ; > = > ; = ; = ",
"> = - = ; $ * H U ( &.1.' 1 > > > , > > > 6 @.#.b.x.u N @.$.&.&.( ( ( ( 1.=.( : ; , - : : , : : : : ; * - - = ; = = = ; ; = > = ",
"- ; % ; ; - $ % U &.=.0.l.g.g.y.b 0 0 0 b { i.f.t.t.@.O.&.&.,.,.,.@.,.@.=.&.{ b _ , : ; , : : , : , , - > * - - - - = * & = = = ",
"; = ; - = 6 = = ; j.j.h.g.l.j.g.j.Y c b b b.4.6 W &.@.W ( &.&.&.,.,.$.4.1.&.1./ ` d c _ ` ` c > c , , , ; ; , > , * - - ; = = - ",
"% 3 - 3 0 0 , = , 0 ,.y.j.k.g.g.j.j.j.g.j.>.* ; 8 4.4.@.( ,./ ,.( ,.4.0.>.&.*.U c _ , c , ' L L L , , , : > ; > > - = ; - = > - ",
"= - - k 0 , , ; - * 0 ^ 0.j.j.y.*.p , 0 : O $ * ; N U 4.&.,.( ,.( ,.{ *.{ &.>.U ` c d ` c c ` L , { c L _ _ , , ; > ; - = = - = "
};
