/* XPM */
static char *_12516009a87435cc41546039a200a94XwG21FUDRyiiU40Z[] = {
/* columns rows colors chars-per-pixel */
"64 64 49 1 ",
"  c black",
". c #060606",
"X c gray3",
"o c #090909",
"O c #0C0C0C",
"+ c gray6",
"@ c #131313",
"# c #161616",
"$ c #202020",
"% c #282828",
"& c #2C2C2C",
"* c gray19",
"= c #373737",
"- c #781216",
"; c #472524",
": c #552C2B",
"> c #572D2C",
", c #613234",
"< c #713A3C",
"1 c #753C3E",
"2 c gray26",
"3 c #7C4042",
"4 c #841418",
"5 c #8D151A",
"6 c #92161A",
"7 c #94161B",
"8 c #96161B",
"9 c #98171C",
"0 c #9A171C",
"q c #B41B23",
"w c #BA1C24",
"e c #BF1C25",
"r c #CF1010",
"t c #D21010",
"y c #DA1010",
"u c #E21111",
"i c #C31D26",
"p c #C41D26",
"a c #E72526",
"s c #F02728",
"d c #F12728",
"f c #F62829",
"g c #FA2829",
"h c #FB292A",
"j c #FC292A",
"k c #FF6767",
"l c gray51",
"z c #CECECE",
"x c white",
/* pixels */
"                                                                ",
"                                                                ",
"                                                                ",
"                                                                ",
"                                                                ",
"                                                                ",
"                                                                ",
"                                                                ",
"                                                                ",
"                                                                ",
"                                                                ",
"                                                                ",
"                                                                ",
"                                                                ",
"                                                                ",
"                                                                ",
"                                                                ",
"                                                                ",
"                                                                ",
"                                                                ",
"                                                                ",
"                                                                ",
"                                                                ",
"                                                                ",
"                                                                ",
"                                                                ",
"                                                                ",
"                                                                ",
"                                                                ",
"                                                                ",
"                                                                ",
"                                                                ",
"                                                                ",
"                                                                ",
"                                                                ",
"                                                                ",
"                                                                ",
"                                                                ",
"                               hj                               ",
"                             hjjjjs                             ",
"                        hjjhhjjjjjjjuuut                        ",
"                      sjjjkkkkjjjjjuuuuuew                      ",
"                    sjjjkkjjjjjjjuuuuupp0i0i                    ",
"                   ajjkkjjjjjuujujuuuppp00998                   ",
"                  hjjkjjjxxuuujujuuuupp0000008                  ",
"                  gjjjjjx*Oxuuujuuuupup0i00000                  ",
"                 fjjjjuu2  .uuuuuuuuppp00000006                 ",
"                 jjjuuujulOuuuuuuuupup0p0000000                 ",
"                hjjujuuuuuuuuuuuuupppzz000000008                ",
"                jjjjujuuuuuuuuuuupupzzzz00000000                ",
"                jjjujuuuuuuuuupupuppzzzz0000000=                ",
"                sjuuuuuuuuupppupuppppzz00000000-                ",
"                &uuuuuuupupppzzppppp0p00000000pO                ",
"                Otuuuuupupppzzzzpp0p0000000000wO                ",
"                 $uuuupuppppzzzzp0p000000000ppX                 ",
"                 .ruuuppuppppzz00p0p00000000ieO                 ",
"                  Oyuuppppp0000i00i0000000piq@                  ",
"                   %yuppp00i00000000000000ii#                   ",
"                     @wp00i0000000000000peXO                    ",
"                      .%5=4690000000806X X                      ",
"                             ,3>3>;                             ",
"                             1>333>                             ",
"                            <33>3>>:                            ",
"                           133>3>3>>>                           "
};
