/* XPM */
static char *aour5_u11w7[] = {
/* columns rows colors chars-per-pixel */
"64 64 11 1 ",
"  c None",
". c #572D2D",
"X c #7C4042",
"o c #9A171C",
"O c #E21212",
"+ c #C41D26",
"@ c #FE2A2A",
"# c #FF6767",
"$ c gray59",
"% c #CECECE",
"& c white",
/* pixels */
"                                                                ",
"                                                                ",
"                                                                ",
"                                                                ",
"                                                                ",
"                                                                ",
"                                                                ",
"                                                                ",
"                                                                ",
"                                                                ",
"                                                                ",
"                                                                ",
"                                                                ",
"                                                                ",
"                                                                ",
"                                                                ",
"                                                                ",
"                                                                ",
"                                                                ",
"                                                                ",
"                                                                ",
"                                                                ",
"                                                                ",
"                                                                ",
"                                                                ",
"                                                                ",
"                                                                ",
"                                                                ",
"                                                                ",
"                                                                ",
"                                                                ",
"                                                                ",
"                                                                ",
"                                                                ",
"                                                                ",
"                                                                ",
"                                                                ",
"                                                                ",
"                               @@                               ",
"                             @@@@@@                             ",
"                        @@@@@@@@@@@@OOOO                        ",
"                      @@@@####@@@@@OOOOO++                      ",
"                    @@@@##@@@@@@@OOOOO++o+o+                    ",
"                   @@@##@@@@@OO@O@OOO+++ooooo                   ",
"                  @@@#@@@&&OOO@O@OOOO++ooooooo                  ",
"                  @@@@@@&&&&OOO@OOOO+O+o+ooooo                  ",
"                 @@@@@OO&&&&OOOOOOOO+++oooooooo                 ",
"                 @@@OOO@O&&OOOOOOOO+O+o+ooooooo                 ",
"                @@@O@OOOOOOOOOOOOO+++%%ooooooooo                ",
"                @@@@O@OOOOOOOOOOO+O+%%%%oooooooo                ",
"                @@@O@OOOOOOOOO+O+O++%%%%ooooooo$                ",
"                @@OOOOOOOOO+++O+O++++%%ooooooooo                ",
"                %OOOOOOO+O+++%%+++++o+oooooooo+$                ",
"                %OOOOOO+O+++%%%%++o+oooooooooo+$                ",
"                 %OOOO+O++++%%%%+o+ooooooooo++$                 ",
"                 %OOOO++O++++%%oo+o+oooooooo++$                 ",
"                  %OOO+++++oooo+oo+ooooooo+++$                  ",
"                   %OO+++oo+oooooooooooooo++$                   ",
"                    %%++oo+ooooooooooooo++$$                    ",
"                      %%o$ooooooooooooo$$$                      ",
"                             XX.X..                             ",
"                             X.XXX.                             ",
"                            XXX.X...                            ",
"                           XXX.X.X...                           "
};
