/* XPM */
static char *_2d5dbc8805544c5a182cafef30c5a34xtncmQZIv3OY82gs[] = {
/* columns rows colors chars-per-pixel */
"64 64 51 1 ",
"  c black",
". c #374D1F",
"X c #384F1F",
"o c #38501F",
"O c #3C5422",
"+ c #3F5924",
"@ c #415C25",
"# c #465F29",
"$ c #446027",
"% c #466229",
"& c #4A652B",
"* c #4D6A2E",
"= c #506D2F",
"- c #4F6E30",
"; c #516E31",
": c #557333",
"> c #5A7A36",
", c #5B7A38",
"< c #D87F19",
"1 c #64873F",
"2 c #DB821D",
"3 c #C3AA1B",
"4 c #D9B31E",
"5 c #DBBC1F",
"6 c #DF8620",
"7 c #DF8920",
"8 c #E08721",
"9 c #E08A21",
"0 c #E29421",
"q c #E39C21",
"w c #C2B124",
"e c #E5AA21",
"r c #E7B322",
"t c #E8B622",
"y c #E7BE20",
"u c #E9BC21",
"i c #D4C31F",
"p c #E1C21F",
"a c #DDC320",
"s c #DBC920",
"d c #E4C620",
"f c #E9C421",
"g c #E3CC21",
"h c #EBCC21",
"j c #E9CB28",
"k c #E3D521",
"l c #EDD422",
"z c #EEDB23",
"x c #F0DE23",
"c c #EFE023",
"v c #F0E323",
/* pixels */
"                            ydfhxx                              ",
"                         kxxhhlhlzhpr                           ",
"                       lzzlllzxxhxxpflk                         ",
"                      kvljlzvxvvllzhppli                        ",
"                     lvljhlzvvvvxzzllhlli                       ",
"                    4lllhlhzvvvvxxxxxlhlls                      ",
"                    uplphhlxf0990uxlzlhhhl                      ",
"                   rfpplhhht099970rhlzhhhjw                     ",
"                   fffhllje88888229qhllhfhl                     ",
"                   dhhhzxr0888<<2280ehxzljl                     ",
"                  5hhhlxhq88888<<<260fvczlls                    ",
"                  klpllxt8888<<<<<<29ecvzlzl                    ",
"                  lluhlzt9998<<<<<<28ezczzzl                    ",
"                  zhfflzt9988<88<<<69evvzllh                    ",
"                  xfufhhuq888666<2<80uvzzllh                    ",
"                  ahfffhuq9886682<<9qhvzghh5                    ",
"                   lhpfhhfq8888888<qfxxzhff                     ",
"                   lhhhhhhuq988888qtllzhphd                     ",
"                   3hhhhhhlht9989ehllxlhhh5                     ",
"                    hhhhhlllxhhlhxxxllhhhh                      ",
"                    yhlhhlllvvvvvvvxlhhlhp                      ",
"                     5lhphllzxvvvvxxlhhlp                       ",
"                      5lhfhhhlzzzxxlllld                        ",
"                       phhpfhhlzxxxlplp                         ",
"                         ahhjhhhlcljs                           ",
"                            glhhhd                              ",
"                         O   @*%O                               ",
"                        :,%  ;;%+                               ",
"                       :1>-& %%#X                               ",
"                       ,,-*-  &+                                ",
"                        +&*-& O+                                ",
"                         +%&-&%#                                ",
"                          O****@                                ",
"                            %**@    #                           ",
"                             *&%   &:*                          ",
"                             O&%   -:&                          ",
"                              &*  %&*&                          ",
"                              &%  $&&O                          ",
"                              %&  @@@                           ",
"                              &% $@@O                           ",
"                              &*%&+o                            ",
"                              **$$o                             ",
"                              ***+                              ",
"                             -;-$                               ",
"                             :>&                                ",
"                             ;-&                                ",
"                             ::*                                ",
"                             :--@                               ",
"                             :;:*                               ",
"                             ,:&*                               ",
"                             *>*%                               ",
"                              :=&                               ",
"                              ;=%                               ",
"                              *=+                               ",
"                              &#                                ",
"                          *   ;&                                ",
"                         %=*  **                                ",
"                         #&:* *&  &%                            ",
"                         X@@:=&@ @%@+                           ",
"                          .#=&*&+@OO                            ",
"                            +@&%@+                              ",
"                            .%$@@o                              ",
"                             &*%+                               ",
"                             &*%+                               "
};
