/* XPM */
static char *axe4a_4p1o6[] = {
/* columns rows colors chars-per-pixel */
"64 64 139 2 ",
"   c None",
".  c #3F5923",
"X  c #425D25",
"o  c #456027",
"O  c #466229",
"+  c #49662B",
"@  c #4D6B2E",
"#  c #516E2F",
"$  c #4F6E30",
"%  c #506E30",
"&  c #557332",
"*  c #587736",
"=  c #597936",
"-  c #5C7C38",
";  c #D77F1A",
":  c #D87F1A",
">  c #5F813B",
",  c #64873F",
"<  c #DB821D",
"1  c #DF8620",
"2  c #DF8920",
"3  c #E08721",
"4  c #E08A21",
"5  c #E29421",
"6  c #E39C21",
"7  c #E5AA21",
"8  c #E7B322",
"9  c #E8B622",
"0  c #E9BD21",
"q  c #E9C420",
"w  c #ECCE22",
"e  c #EDCE22",
"r  c #ECCF22",
"t  c #ECCE23",
"y  c #EDCF23",
"u  c #ECCE22",
"i  c #EACC24",
"p  c #EACE24",
"a  c #EBCF27",
"s  c #EACB21",
"d  c #E9CB28",
"f  c #EBD020",
"g  c #EBD021",
"h  c #EBD221",
"j  c #EBD323",
"k  c #ECD021",
"l  c #ECD121",
"z  c #EDD320",
"x  c #ECD221",
"c  c #ECD321",
"v  c #ECD022",
"b  c #ECD122",
"n  c #EDD122",
"m  c #ECD023",
"M  c #EDD023",
"N  c #ECD222",
"B  c #EDD222",
"V  c #ECD322",
"C  c #EDD322",
"Z  c #ECD223",
"A  c #EDD223",
"S  c #ECD323",
"D  c #EDD323",
"F  c #ECD421",
"G  c #EDD421",
"H  c #ECD521",
"J  c #ECD721",
"K  c #EDD721",
"L  c #EDD422",
"P  c #EDD522",
"I  c #EDD523",
"U  c #EED522",
"Y  c #EED423",
"T  c #EED523",
"R  c #EDD622",
"E  c #EDD722",
"W  c #EDD623",
"Q  c #EDD723",
"!  c #EED622",
"~  c #EED623",
"^  c #EED723",
"/  c #ECD325",
"(  c #ECD524",
")  c #ECD425",
"_  c #ECD525",
"`  c #EED524",
"'  c #EDD624",
"]  c #EDD724",
"[  c #EDD725",
"{  c #EED724",
"}  c #EDD821",
"|  c #EDD822",
" . c #EDD922",
".. c #EED822",
"X. c #EED922",
"o. c #EFD922",
"O. c #EED823",
"+. c #EED923",
"@. c #EFD923",
"#. c #EDDA22",
"$. c #EEDA22",
"%. c #EEDB22",
"&. c #EEDA23",
"*. c #EFDA23",
"=. c #EFDB23",
"-. c #EEDC22",
";. c #EEDD22",
":. c #EFDD22",
">. c #EEDC23",
",. c #EFDC23",
"<. c #EEDD23",
"1. c #EFDD23",
"2. c #EFDE22",
"3. c #EFDF22",
"4. c #EEDE23",
"5. c #EFDE23",
"6. c #EFDF23",
"7. c #EED924",
"8. c #EEDA25",
"9. c #EDD826",
"0. c #EFDC24",
"q. c #EFDD24",
"w. c #EFDF24",
"e. c #EBD62D",
"r. c #EDD828",
"t. c #EEDF2A",
"y. c #F0DE23",
"u. c #F0DD24",
"i. c #EFE023",
"p. c #EFE123",
"a. c #EFE024",
"s. c #F0E123",
"d. c #F0E223",
"f. c #F0E323",
"g. c #F0E024",
"h. c #F0E124",
"j. c #F0E324",
"k. c #F1E324",
"l. c #F1E424",
/* pixels */
"                                                        0 q s e q.q.                                                            ",
"                                                  1.q.| s e C e L 8.f 0 q                                                       ",
"                                              q.8.r.( 8.L y.y.| s 1.| q q s 1.                                                  ",
"                                            f.q.( p C | f.f.f.y.L | y.v f s C 1.                                                ",
"                                          p.i.F e s C | f.l.l.f.1.| 1.L s f v L |                                               ",
"                                        q v v s s L C | f.l.l.l.i.1.1.1.| L f F 8.|                                             ",
"                                        0 s f s s s F 8.q 5 4 4 5 0 q.| | F s s v L                                             ",
"                                      0 q q s v v s s 0 5 4 4 4 4 5 8 s | | f s s d e.                                          ",
"                                      q 0 s v F L M 7 4 3 3 < 1 < < 4 7 i ` L s s s )                                           ",
"                                      s s s s 1.8.7 5 4 3 1 < : < < 3 4 7 s k.L v s M                                           ",
"                                    v s s s L 1.e 6 3 3 3 1 < < : : : 3 5 q f.i.| ( ( a.                                        ",
"                                    L C q f | 1.9 4 3 3 3 < < : : : : 1 4 7 i.f.q.| | 8.                                        ",
"                                    | L 0 s L | 9 4 2 4 3 < : : ; ; ; 1 1 7 1.i.1.| 8.L                                         ",
"                                    k.s q s ( ( 9 4 4 3 3 < 1 < : ; < 1 1 7 f.i.q.| F s                                         ",
"                                    | s 0 q p M 9 6 4 3 3 1 1 < ; : : 3 5 0 a.i.L F F s                                         ",
"                                    | f q 0 q e 0 6 4 3 3 1 < 1 < : : 3 6 i a.1.v s s s                                         ",
"                                      C s q q s s q 6 4 4 3 3 3 < 1 < 6 q | 1.J s s s                                           ",
"                                      z C s s s s s 9 6 4 3 4 3 3 4 6 9 ( | | v q q q                                           ",
"                                      s e e s s s e v e 8 4 4 4 4 7 t ( u.8.C s s q s                                           ",
"                                        e e y s C L L ( 8.C t t t u.u.u.L L e s s f                                             ",
"                                        q C e s s v F | k.l.l.l.l.l.l.1.L v s C C s                                             ",
"                                          s L e s q v L | y.k.i.u.f.f.| v e C L s                                               ",
"                                            s C e q q f e v u.1.1.i.1.C s v L v                                                 ",
"                                              s C s q s s s L 8.1.i.1.C f s f                                                   ",
"                                                  e v s e p s v L a.r.( m                                                       ",
"                                                        ( v s s s s                                                             ",
"                                                  &       & % X o                                                               ",
"                                                > - @     & % O X                                                               ",
"                                              , , = & $   @ O X X                                                               ",
"                                              , - $ @ $     @ X                                                                 ",
"                                                O O @ @ $   X X                                                                 ",
"                                                  O O + @ @ O O                                                                 ",
"                                                    O @ $ + @ O                                                                 ",
"                                                        $ @ @ X         &                                                       ",
"                                                          @ + +       & & &                                                     ",
"                                                          + + O       & & +                                                     ",
"                                                            + @     @ @ # +                                                     ",
"                                                            @ O     O O + O                                                     ",
"                                                            + @     O o X                                                       ",
"                                                            @ +   + . o .                                                       ",
"                                                            @ @ + O X .                                                         ",
"                                                            @ @ O o .                                                           ",
"                                                            # @ @ o                                                             ",
"                                                          - % $ @                                                               ",
"                                                          - & $                                                                 ",
"                                                          = % %                                                                 ",
"                                                          & & %                                                                 ",
"                                                          - $ @ @                                                               ",
"                                                          * % & $                                                               ",
"                                                          , & + @                                                               ",
"                                                          = * @ +                                                               ",
"                                                            * # +                                                               ",
"                                                            % % +                                                               ",
"                                                            # # +                                                               ",
"                                                            @ +                                                                 ",
"                                                    *       & +                                                                 ",
"                                                  # # &     & @                                                                 ",
"                                                  X + & &   * %     @ @                                                         ",
"                                                  X . X & & + O   o O X @                                                       ",
"                                                    X @ # + $ O O X . .                                                         ",
"                                                        X X + O X .                                                             ",
"                                                        . O X X X X                                                             ",
"                                                          @ @ O .                                                               ",
"                                                          @ @ O X                                                               "
};
