/* XPM */
static char *a8p54_qxf42[] = {
/* columns rows colors chars-per-pixel */
"64 64 22 1 ",
"  c #180A06",
". c #190B06",
"X c #180B07",
"o c #1B0B06",
"O c #1D0C07",
"+ c #210C07",
"@ c #230C07",
"# c #240C07",
"$ c #270D07",
"% c #2B0E07",
"& c #290F08",
"* c #371007",
"= c #391207",
"- c #3C1207",
"; c #331108",
": c #341108",
"> c #351108",
", c #3B1308",
"< c #411307",
"1 c #581909",
"2 c #621B0A",
"3 c #6F200C",
/* pixels */
"33333332322322222222222222222-XO33333332222322222222222222222-Xo",
"3<<<<<<=<==<==,=============:%Xo3<<<<<<=<=-<,-=,=======*====*%Xo",
"3<============*,=*=====,=,==;% O3<==========,===:===========*%Xo",
"3<==========================;%.O3<======,-==================;%X+",
"3<=*======,================:%$ O3<=========================:%$Xo",
"3<======================*==:%$ O3<=================*=======:%$Xo",
"2=========================:%$@XO2=========================:%#+Xo",
"3<====,==================,:%$$XO3<===================*====;%%&X+",
"2=======================::%&$OXO2====================,=,::%&#+Xo",
"1=====================::%%&@@@ O1===================,=;;%%&#++XO",
"1=,================*::%%&&@@O@ O1===================::%%&&##++Xo",
"1===========:;::::;*%%&$&$@@O@.O1===========:;;;::::%%%$&#++++X+",
"1:::;:::;;**%%%%%%%%$$%#@@@O@@XO1*::::;:::*:%%%%%%%%#%###+++++Xo",
"-%%%%%%%%%%%$$$$$$$$$#++@O@@O@ .=%%%%%%%%%%%$$%%%$$$%##++++#++Xo",
"XXXX.X    XXXXXXXXXXXXXXXX     XXXXXoXX XXXXXXXXXX  XXXXXXXXXoXX",
"OOOOOOOOOOo+ooXX@oo+ooOOoOO.OOOOoOoOOOo@oOoOooXooOOo+oo+oooo+oo+",
"2222222222222-Xo33333332322322222222222222222-XO3333333232232222",
"============:%XO3<<<<<<=<==<================*%XO3<<<<<<=<==<====",
"============:%XO3<=============*=======,====*%Xo2<,=============",
"============:%XO3<=======,==========*=======;%XO3<==============",
"===========:%$ O3<==============,==========;%$XO3<==============",
"======-===,;%$ O3<====================,====;%$XO3<=====:========",
"==========;%$@X@2*========================*%$@XO2<,=============",
"=========*;%$$Xo3<========================;%$@XO3<,=============",
"========::%&#+Xo2=======================;;%&@@XO2===============",
"======::%%&#++X+1===*=====*===========;;%%&@O@ O1===============",
"=*==::%%&&#+++XO1==================*::%%%%##@@ O1===============",
";;;*%%&$&##+++XO1===========;*;;;;*;%%&$%##+@O O1=====**==*=::;*",
"%%%%$$&##+++++Xo1***;;*;;;**%%%%%%%%$$$@#+++O@XO1:::*;;:;::*%%%%",
"$$$$$@++++++++X+-%%%%%%%%%%%$$$$$$$$$$@@++++@@XO-%%%%%%%%%%%$$$$",
"X.. .X  XXXXXXXXXXXXXXXXXXXX XX.XX.XXX  XXXX XXXX...XXXXXXXXXXXX",
"OOOOOOOOoo+oo+ooOOoOOOOOoOoOOO OOOOOOOO.OooOOOOOOOOOO@oOooOo+oXo",
"33333332322322222222222222222-XO33333332322322222222222222222-XO",
"3<<<<<<=<=*<===========*===*:%Xo3<<<<<<=<==<================:%XO",
"3<==========================:%X+3<=========================,*%Xo",
"3<============*=============:%oo3<===============*===,======*%Xo",
"3<===============*=-=======:%%Xo3<=================*,======:%$ O",
"3<==--=====================:%#Xo3<=========================:%$ O",
"2=====================*===:%%+XO2================,========:%$@XO",
"3<========================:%#&Xo3<===*====================:%$@XO",
"2=======================::%&++X+2============*==========::%&@@ O",
"1=====================::%%&$++Xo1=====================::%%&@@O O",
"1==-================::%%&&#+++Xo1================*==::%%&&@@++.O",
"1===========::::::::%%&$%#++++Xo1=====*=====*;;*::::%%&$&$@@++ O",
"1::*::::::::%%%%%%%%$$$#$+++O@XO1**;;;*;::*;%%%%%%%%$$$#++++++XO",
"-%%%%%%%%%%%$$$$#%#%$##+O@++@@XO=%%%%%%%%%%%$$#%%$$$$$#+++++++ O",
".XXoXXXXXXXXXXXXXXXXXXXX      XX.XXX.XXXXXXXXXXXXXX XXXXXX      ",
"OOOOo+ooo+oo+oXoooOOo+ooOOOOOOOOOOOOOOOOOOoOoOXooOooo+oOOoOOOOOO",
"2222222222222-XO33333332322322222222222222222-XO3333333232232222",
",**=========;%XO3<<<<<<=<==<=======:========*%XO3<<<<<<=<==<====",
"============*%Xo3<===============-==========;%XO2<-,============",
"============*%XO3<==========================;%.O3<==============",
"===========;%$ .3<=========================*%$ O3<==============",
"=,=========;%$.O3<===============*=========;%$ .3<========,=====",
"========,=;%$@XO2========,================;%$$ O2<,=============",
"======*===;%$&XO3<========================;%$@XO3<,=============",
"========::%&#+Xo2==================*====;;%&$OX@2===============",
"=====**;%%&#++XO1==========,==========::%%&@@@XO1*==============",
"====;*%%&&+#++Xo1===================::%%&&@@OOXO1=*=============",
";;*;%&%$&$++++X@1*==========;*;;*;::%%&$%@@@@@Xo1========*=,::::",
"&%%%$$$##+++++Xo1*::::::;;::%%%%%%%%$$$+$O@@@O @1:::*;;;::;*%%%%",
"$$$$%#++++++++XO-%%%%%%%%%%%$%$$$$$%$$#+O@@O@@ o=%%%%%%%%%%%$$$$",
"X..XXXXXX XXXXXXXXXoXXXXXXXXXXXX  XXXXXX    X.XXXXXXXXXXXXXXXX..",
"OOOO+oo+ooOOO@ooOOOoo+o+oOooOoXOOOOO+oooOOOOOOOOOOOOO@oOooOOoOXO"
};
