/* XPM */
static char *azfto_4nwip[] = {
/* columns rows colors chars-per-pixel */
"64 64 106 2 ",
"   c #11090A",
".  c #12090A",
"X  c #13090B",
"o  c #120A0B",
"O  c #140A0B",
"+  c #130A0C",
"@  c #130B0C",
"#  c #140A0C",
"$  c #150B0C",
"%  c #150D0E",
"&  c #160D0E",
"*  c #160D0F",
"=  c #180E0F",
"-  c #180F10",
";  c #1B0E10",
":  c #1A0F10",
">  c #1A0F11",
",  c #1B0F11",
"<  c #1C0E10",
"1  c #1E0F11",
"2  c #1A1012",
"3  c #1C1113",
"4  c #1E1113",
"5  c #1F1214",
"6  c #1F1315",
"7  c #201315",
"8  c #221315",
"9  c #241417",
"0  c #261417",
"q  c #271417",
"w  c #271418",
"e  c #281418",
"r  c #291518",
"t  c #291519",
"y  c #2A1619",
"u  c #2E151A",
"i  c #2F161B",
"p  c #2F181C",
"a  c #30161B",
"s  c #33171C",
"d  c #33181D",
"f  c #34181D",
"g  c #35181D",
"h  c #36181D",
"j  c #35181E",
"k  c #38191F",
"l  c #381A1F",
"z  c #331C20",
"x  c #341C20",
"c  c #361D21",
"v  c #381A20",
"b  c #391A20",
"n  c #3A1B21",
"m  c #3C1B21",
"M  c #381E23",
"N  c #3D1C21",
"B  c #3D1D23",
"V  c #3F1E24",
"C  c #3E2025",
"Z  c #401E24",
"A  c #401F24",
"S  c #411E25",
"D  c #421F26",
"F  c #412026",
"G  c #422027",
"H  c #452126",
"J  c #472127",
"K  c #472329",
"L  c #46232A",
"P  c #47232A",
"I  c #48242B",
"U  c #4D242A",
"Y  c #4E242B",
"T  c #4B252C",
"R  c #4B262D",
"E  c #4C252C",
"W  c #4E282F",
"Q  c #50272F",
"!  c #54272E",
"~  c #502931",
"^  c #512A31",
"/  c #542931",
"(  c #552931",
")  c #562932",
"_  c #562A33",
"`  c #522D33",
"'  c #522D34",
"]  c #542E35",
"[  c #562F36",
"{  c #582931",
"}  c #582C34",
"|  c #582D35",
" . c #5D2D36",
".. c #5E2E37",
"X. c #593037",
"o. c #593138",
"O. c #5C3038",
"+. c #5D323A",
"@. c #5E323A",
"#. c #5E333B",
"$. c #5F333C",
"%. c #61313A",
"&. c #63333C",
"*. c #60343C",
"=. c #673740",
"-. c #693942",
/* pixels */
"-.-.-.-.-.-.-. .&. . .&. . . . ... . ._ .. . . . . . . . .F @ 3 ` -.-.-.-.-.-.&.&.&.} &.&. . . . .}  . . . . . . . . . . .R < & ",
"-.~ I I I I I V I F V P A V V V V V V V V V V V V V V V f e @ 3 ` R E I I I I V P F Z P V V V Z V V V V Z Z Z l Z Z Z Z l u & & ",
"-.I f f f f f f f f f f f f s f f d f f h h s f f d s s u 0   3 ] I l f f f s f f f f f s s f f s f s s f f f f s f s f u 0   2 ",
"-.I f f f f f f f f f f f f f s f f f f s s s f f s s s s 0 O 3 ] I M f f f f f f f f f s s f f f s s s f f f f s f f f d 0   & ",
"-.I f s f f f f f f f f f f f f f f f f f f f f f f d u w 7   3 ' I l f f f f f f f f f f f f f f f f f f f f f f f d u 0 6   - ",
"-.P f f f f f f f f f f f f f f f f f f f f f f f f d u w 7 O 3 ] I l f f f f f f f f f f f f f f f f s f f f f f f d s 0 6   & ",
" .V f f f f f f f f f f f f f f f f f f f f f f f f s w 7 3   = I A l f f f f f f f f f f f f f f f f f f f f f f f u 0 7 3   & ",
"=.P f f f f f f f f f f f f f f f f f f f f d s f f u e 0 3   3 ] K l f f f f f f f f f f f f f f f f f f s f f f f u 0 0 3   2 ",
" .V f f f f f f f f f f f f f f f f f f f f s h u h 9 e 1 - @ , I V s h f f f f f f f f f f f f f f f f f f s s u s r 0 < < O & ",
"! V f f f f f f f f f f f f f f f d f f f f u i 9 9 8 1 < < X - H V s h f f f f f f f f d d f f f f f f f f u s 0 0 r 7 = = O & ",
"! l f f f f f f f f f f d d f f s d s h i s 9 0 9 9 1 1 - < # - H l f f f f f f f f f f d d d d f f f f d u 0 0 7 r 3 = = - # & ",
"! l f f f f f s f f f f u u u s s u i a 9 9 9 0 9 1 1 - 1 - @ - D Z f f f f f d f f f f s u u s u s p u 0 w 0 r 7 3 = < 1 -   2 ",
"! f s u u f u u u u u s w 0 0 0 9 9 e 9 8 8 9 , 1 < , - < - . < H l s u u s d u u s d u 0 0 0 0 w 0 0 0 0 3 7 < 1 1 - < = 1 O O ",
"M r 0 0 0 0 0 0 w 0 0 0 8 8 8 8 8 8 8 8 9 < 3 , < - < < ; - . # d u 0 r 0 0 0 0 0 0 0 0 3 8 8 0 8 8 8 8 8 2 7 = < - < - 1 = # & ",
"O     & #       @     O @       @ . @ @ @ . # # # # X # @ @ @       O O O     O       O         &   @         #     O # # # #   ",
"3 3 3 3 7 3 2 8 3 3 3 3 3 &   & 3 3 3 9 3 , , 8 , 4 4 , 8 - < < 2 3 3 3 3 3 3 3 3 3 8 2 3 2 O & & 3 7 3 8 3 8 3 8 3 3 7 3 3 2 < ",
"! ( ( ( ~ ( ~ ( ( ( ( ( ( j O 2 +.+.+.&.$.#.#.( +.( ( +._ ( ( ( / { / / _ _ / / _ _ ( ( ( M # & o.+.*.+.*.+.*.}  .} ( ] } ( ( ( ",
"l l l f n l l l x j f n f e O 7 #.P I F F F F n V A f F n x n x s l s j g j j c j f j j f e # - ' ~ P F F H F M V A n A A h n s ",
"f f f f s s h s f f d s p 0 & 7 #.G x x n x f f f f f f h h s s l s j p j j s g j j d d h 0 @ & ' ~ V s l f f f s f f f f f s h ",
"f s f f h h s h f f d s u 0   3 *.G f f h f f f f f f f h h s d l s j g s j c s g j d d u 0 @ & ' Y x d f f f f d f f f f f d s ",
"f f f f s f f f f f f s e 8 # 3 *.A f f s f h s f f f f f f f f j g s g s c s g s g s p w 7 # = [ R M f f f d f f f f f f f f f ",
"f f f f d f x f s f f s w 8   8 *.A x f f s f d f f f f f f f f g s c s g s g s g s s p e 3   & ' R l f f f s h f f f f f f f f ",
"f f f f s h f f f s s 0 6 3   3 _ n f f f f f f f f f f f f f f g s j s s g g s s d s 0 8 8   # R F V f f f f f f f f f f f f f ",
"f f d d s s h h s s u r 3 8   < &.A f f f f f f f f f f f f f f s g s g s c s j s s p 0 8 1   - ' I l s f f f f f f f f f f f f ",
"f f f f f f f d u p 0 0 1 1   8 _ n s h f f f f f f f f f f f f z j s j s s f s s u 0 0 < <   & E A M f f f d d f f f f f f f f ",
"f f f f f f f u 0 0 0 3 1 =   7 E h s h s f f f f f s f f f f f g s s d c f s p q q 8 < < 3   = H A l f f f f d f f f s f f f f ",
"f s f f u u 0 e q q 3 = = 1 # 3 Y f s h f f d s f f f f f f d d s s s s s y 0 0 q q 1 1 - < O = D A l f f f d d f f f h d s f f ",
"i i i i 0 0 0 7 0 3 < = 1 -   3 Y z s s f f f s f f f f u u p u p s y s 0 0 0 7 y 1 = = < -   - H l f f f f s s f f f f i u s i ",
"w w e 0 8 8 w < < < 1 = 1 =   - Y h u s u i s i i s u p 0 0 0 0 0 0 e 9 8 0 7 7 8 & = = 3 -   2 J l s i p u u s u u u d w e w w ",
"3 8 8 8 8 3 3 2 3 = - - = 1   - x 9 e 9 9 9 9 9 9 9 w w 8 8 0 7 3 0 8 8 7 = 1 = = 2 = 3 = &   & h u e w 0 0 0 0 w 0 0 0 3 9 6 6 ",
"#                 O     #   #       # #   @   @       #       # @           O O   @ O   O O           & @       @             O ",
"2 2 2 - = - - < < & 2 - < - - = - - - = < - - - - - - - - &   & = = < - = - < = - = 2 - - = 2 & & 2 2 & - - - - - 2 2 & - 2   & ",
"[ X.X.X.X.X.O./ O.Q Q O.Q Q ~ Y Q Q ~ Y ! ! W ! ! ! E / ~ M   2 o.o.o.o.o.o.+.~ X.~ Q } ~ Q ( E ( ( I ( Q Q Q Q Q Q Q Q Q z # # ",
"-.R P P P P I l K l V P V m V V m m A V M l l C M l V V f e   2 ] ~ I I I P P A H F V F A V l V l V V n m n m V V m n n m h * - ",
"-.Y V l l l l M j l x l h l f n n v d f l n z j j x f l f e # 3 ] Y V n x n l n l l l l n f l l l f d n s v n z l z h v h e # * ",
"-.P f f f x f j f f d s s h d f h h h f h f g s f f f f u r # 3 ] K v d h s h s f f f f f f f f s h f f v s h h h s h h i 9 X - ",
"-.P z d f l s j f s f s f f f f s s v s j d g g f s f s w 3 # 2 ] I n f d f f f f f f f f f f f f h s s f f x f s h s i 9 8 # - ",
"-.R f d f j f s f f f f f f f f s s h s j j s c f l s u w 9   3 ] P n f f f f f f f f f f f f f s h f h h h s f h z s i 9 8 . - ",
"&.F d f f f f f f f f f f f f f h f s s s j s f s f u 0 e , @ , Y V f f f f f f f f f f f f f f d z f f s z h s s h i 9 9 , . - ",
"#.P j s f f f f f f f f f f f f z s f s f s f j j f u 0 3 , X < ~ P n f f s f f f f f f f f f f f d f f h s s s z s h e 3 < . @ ",
"&.V f s f s l s f f f f f f f f h s s s z s s h s u 0 w < - . < ~ A f f f f f f f f f f d s f f f f f f d d d d i s 9 9 1 < @ * ",
"} l s l s f s s f f f f f f f f s h s h v s u i e 9 0 < < - @ < F A n f f f f f f f f f d d f f f f f f f d s u 9 9 e 4 < - . - ",
"! N l j s f j f f f f f f d f f s z h s u a 9 9 8 9 1 < 3 < @ - H l d f f f f d f f f f d d d d f s d f u s w 0 9 9 1 < < - # - ",
"! l s s j s f f f f f f d u u p i i i u 0 9 9 9 e 1 1 - < - # - A V l f f f d d f f f f p s u p s u p u 0 0 w 9 9 < < - , - @ @ ",
"Q z u s s p s u u p u u 0 w 0 w w w w w 0 8 9 1 1 < - 1 < < # - H l s u u u u s s u s u 0 0 w 0 w e w w 8 9 8 , 1 1 - - - < X # ",
"A u 9 9 0 0 0 0 0 w w 0 7 7 3 8 7 3 8 3 3 1 < < - - < - < -   - x u 0 0 0 q q 9 0 0 e 9 8 8 8 8 3 7 7 7 8 < < < < - < - < < # * ",
"# # @ @ #       @     @ $     @ &   # @ @ # # # # # #       #     O   & #         @           @     &       @ # X X   @ @ # @ . ",
"& & @ = 2 & & & & - & & & & # O & & - - # # - # & & # - - # & & = & & = & & & - - & & - - &   @ & = = & - & & # # - & - & # - # ",
"I Q E I T A E E E E T T E v @ - o.] ] ] ' ' ] R ` R P ] R R P U T T T T E E A T E I Y I R z @ & o.] ' ' ] ' ' R ~ R Y ~ Y P R P ",
"A A Z V A V D S S S S S n e @ - *.~ Y R R Y R V R A A K A V Z Z S A m S A D A A A C F V m s # - ] ( ` Y R Y Y P P P A I I V A F ",
"n l l l n n v n b b b b z e X , *.A M V V M n V n l n n V n n n b b b b b b n v n l n n s e @ & ] Y F x x V V n n v n x l n n l ",
"s h s h s s h z s s h s i 9 @ 9 *.A f f s d s d s h h h f s s f a v s h h h h s h h d f u 0 # & ] Y M f d s s f s d s d h f f f ",
"h s s z h s h s s h s i 9 3 # 3 *.G f f f f f f h s f f f f f f h h s z f h h h s h s u 0 3 & - ] R V s s f f f f h f d h d f d ",
"f f h s s s s h s s s s e 9 X 9 *.A n f f f f f h s f f f f f f s s s h f s s z h s x u w w   & ' R M d f f f f s f x f h h h f ",
"f h z h f f s h x v i 9 8 8 . < ( x f f f f f f s f f f f f f f a v h s x f f s s s u 0 8 <   & Y P M s f f f f f s f d h f f s ",
"h f h s s x s f s s h 9 3 < # 3 $.V f f f f f f d f f f f f f f h z s s s f h f x s s 0 8 <   & ' P l h f f f f f j d s h s f z ",
"f f f f d d d d i i w 0 < - # 3 ] A h s s f f f s h h s s v h s s h a s v a h h s u 0 9 3 -   - R P n f f f f f f f j j f f s f ",
"f f f f f s s u 9 9 w 1 2 - # 1 Y l h s f f f f s z s s s s s z h s s v a h a u 0 0 0 < < 1 # & H V n d f f f d f f s f f f f s ",
"f f f f u u w 0 e w < 1 - 2 # 3 U l f d f f f f h s z h s z s s s z s z u u 9 e 8 0 1 1 - < # - A V n s f f d d s f f f s s s j ",
"i i u u w e w 9 9 < 2 - - < # 1 E f f d f f f f h z s s s u u s u s u u 9 9 9 8 q 1 1 - < - # & H n f f f f s s j d f f u p s s ",
"w e 0 0 8 3 e < 1 - < - 1 = O < Y f i u s a i i a u u s 9 8 9 9 e e e 9 9 8 9 1 3 - - 1 - -   & A V s i s u i s p u u p 0 0 0 0 ",
"7 7 0 7 8 - 3 < 1 < - - = 1   < M e w w 9 9 9 8 9 e 9 9 8 8 0 8 9 3 9 , 8 < , < < - < - 1 - @ & h s e 9 9 9 9 9 0 0 0 0 7 7 0 7 ",
"    @   @ . # @ @ . @   # # #   @ @ @ @ @ X @ @ @ X . .       @ @   @ @ X X # #     . O . * @     & # @         @ @     @   @ @ ",
"- - & - @ - & - # - & - & - & - - - @ - # - @ - * - # - - *   @ - - # - * - # - - & = * * * & - & & - & & - & - - @ & & - &   $ "
};
